<?xml version="1.0" encoding="UTF-8"?>
<svg id="Layer_1" xmlns="http://www.w3.org/2000/svg" version="1.1" viewBox="0 0 500 155">
  <!-- Generator: Adobe Illustrator 29.1.0, SVG Export Plug-In . SVG Version: 2.1.0 Build 142)  -->
  <defs>
    <style>
      .st0 {
        fill: #d21947;
      }

      .st1 {
        fill: #3e4147;
      }
    </style>
  </defs>
  <path class="st1" d="M475.2,18.3h7v27.5h8.9v-27.5h7.4v-6.1h-7.4v-6.1l.5-.5h8.4V0h-8.4c-6,0-9.4,3.1-9.4,8.7v3.6h-7v6.1h0ZM448.4,29.1h0c0-7.1,3.5-10.7,8.4-10.7s7.9,3.6,7.9,10.7-3,10.7-7.9,10.7-8.4-4.1-8.4-10.7h0ZM438.9,29.1h0c0,11.2,7.9,17.3,17.9,17.3s17.4-6.1,17.4-17.4-8-17.9-17.4-17.9-17.9,6.1-17.9,17.9h0ZM389.3,12.2h0v.5l12.9,34.2-4.5,10.7v1h9.9l17.9-45.9v-.5h-9.9l-7.9,24.5h-1l-8-24.5h-9.4,0ZM361.5,12.2h0v6.1h7v18.4c0,5.6,3.5,9.2,9.4,9.2h7.4v-6.6h-7.4l-.5-.5v-20.4h7.4v-6.1h-7.4V2h-1l-8,3.1v7.1h-7ZM349.1,45.9h9.4V12.2h-9.4v33.7ZM348.1,7.1h10.9V0h-10.9v7.1ZM314.3,21.4h0c0,6.1,4.5,8.7,10.9,10.2l6.5,1c3,.5,4.5,1.5,4.5,3.6s-2.5,3.6-6.5,3.6-7-1.5-7.5-5.1h-8.4v1c.5,6.1,6,10.7,15.9,10.7s15.4-4.6,15.4-10.7-5-8.7-11.4-9.7l-6.5-1.5c-2-.5-4-1-4-3.1s2.5-3.6,6-3.6,6.5,1.5,7,4.6h8.4v-1c-1-5.6-6-10.2-15.4-10.2s-14.9,4.6-14.9,10.2h0ZM292,12.2h0v33.7h8.9v-18.4c0-5.6,2.5-8.7,8-8.7h3.5v-7.1h-3.5c-4,0-6.5,1.5-7.5,4.6h-1v-4.1h-8.4ZM262.7,25.5h0c.5-4.1,3-7.6,7.9-7.6s7.5,3.6,8,7.6h-15.9ZM253.2,29.1h0c0,11.2,8,17.3,17.4,17.3s14.9-6.1,15.9-10.7v-1h-8.4c-.5,2-2.5,5.1-7.5,5.1s-7.9-4.1-7.9-8.7h24.8v-2.6c0-11.2-7-17.3-16.9-17.3s-17.4,6.1-17.4,17.9h0ZM217,12.2h0v.5l12.9,33.1h10.4l12.4-33.1v-.5h-9.4l-8,24h-.5l-7.9-24h-9.9ZM205.1,45.9h9.4V12.2h-9.4v33.7h0ZM204.6,7.1h10.4V0h-10.4v7.1h0ZM167.3,12.2h0v33.7h8.9v-18.9c0-6.1,4-8.7,7.9-8.7s6,2,6,6.1v21.4h8.9v-22.4c0-7.6-5-12.2-12.4-12.2s-8.9,3.6-9.9,5.1h-.5v-4.1h-8.9,0ZM122.1,0h0v29.1c0,10.7,7.4,17.4,19.4,17.4s19.4-6.6,19.4-17.4V0h-9.4v29.6c0,6.1-3.5,9.2-9.9,9.2s-9.4-3.1-9.4-9.2V0h-9.9,0Z"/>
  <path class="st1" d="M435.5,66.3h0v1l13.4,34.2-4.5,10.2v1h9.4l17.9-45.4v-1h-9.9l-8,24.5h-.5l-8.4-24.5h-9.4,0ZM407.7,82.1h0c0-6.1,3.5-9.7,7.9-9.7s8,3.6,8,9.7-3,9.7-8,9.7-7.9-3.1-7.9-9.7ZM398.7,82.1h0c0,11.2,7,16.8,14.9,16.8s7.4-2,8.9-3.6h.5v3.6c0,5.1-2.5,8.2-7.5,8.2s-7.4-3.1-8.4-6.1h-8.4v1c1.5,6.1,7,11.2,16.9,11.2s16.9-5.6,16.9-15.3v-31.6h-6.5l-1.5,4.1h-1c-1.5-2.5-4.5-4.6-9.9-4.6s-14.9,5.1-14.9,16.3h0ZM369.9,83.1h0c0-6.6,3-10.7,8.4-10.7s7.9,4.1,7.9,10.7-3,10.7-7.9,10.7-8.4-4.1-8.4-10.7ZM360.5,83.1h0c0,11.7,7.9,17.3,17.9,17.3s17.4-5.6,17.4-17.3-8-17.9-17.4-17.9-17.9,6.1-17.9,17.9ZM347.1,53.5h0v46.4h8.9v-46.4h-8.9ZM316.3,83.1h0c0-6.6,3.5-10.7,8.4-10.7s8.4,4.1,8.4,10.7-3.5,10.7-8.4,10.7-8.4-4.1-8.4-10.7ZM307.4,83.1h0c0,11.7,7.4,17.3,17.4,17.3s17.9-5.6,17.9-17.3-8-17.9-17.9-17.9-17.4,6.1-17.4,17.9ZM271.1,66.3h0v33.7h8.9v-18.9c0-6.1,3.5-8.7,7.9-8.7s6,2,6,6.1v21.4h8.9v-21.9c0-8.2-5-12.2-12.4-12.2s-8.9,3.1-9.9,4.6h-.5v-4.1h-8.9,0ZM232.9,53.5h0v46.4h9.4v-18.9c0-6.1,3.5-8.7,7.4-8.7s6,2,6,6.1v21.4h9.4v-21.9c0-8.2-5-12.2-12.4-12.2s-8.9,3.1-9.9,4.1h-.5v-16.3h-9.4ZM195.6,83.1h0c0,11.7,7.9,17.3,17.4,17.3s15.4-5.6,15.9-12.2v-1h-8c-.5,3.6-2.5,6.6-7.4,6.6s-8.4-4.1-8.4-10.7,3.5-10.7,8.4-10.7,7,3.1,7,6.1h8.4v-1c-1-6.1-6-12.2-15.9-12.2s-17.4,6.1-17.4,17.9h0ZM168.3,79.5h0c.5-4.1,3-7.6,7.9-7.6s7.4,3.6,7.4,7.6h-15.4ZM158.9,83.1h0c0,11.7,7.9,17.3,17.4,17.3s14.9-5.6,15.9-10.7v-.5h-8.4c-.5,2-2.5,5.1-7.4,5.1s-7.9-4.1-7.9-9.2h24.8v-2.5c0-11.2-7-17.3-16.9-17.3s-17.4,6.1-17.4,17.9h0ZM122.1,53.5h0v7.1h15.4v39.3h9.9v-39.3h14.9v-7.1h-40.2Z"/>
  <path class="st1" d="M311.8,120.3h0v33.7h9.4v-18.9c0-6.1,3.5-8.2,7.5-8.2s6,2,6,6.1v20.9h9.4v-21.9c0-8.2-5-12.2-12.4-12.2s-8.9,3.1-10.4,5.1h-.5v-4.6h-8.9ZM296.9,154h8.9v-33.7h-8.9v33.7ZM295.9,115.8h10.9v-8.2h-10.9v8.2ZM268.1,144.3h0c0-2.5,2-3.6,4.5-4.1l8.9-1v.5c0,5.6-3.5,8.7-7.9,8.7s-5.5-2-5.5-4.1h0ZM260.2,132.1h8.9c0-4.1,2.5-5.6,6.5-5.6s6,1.5,6,6.1v1l-10.9,1c-6.5,1-11.4,4.1-11.4,10.2s5,9.7,11.9,9.7,8.9-2.5,10.4-4.1h.5v3.6h8.9v-20.9c0-8.7-6.5-13.3-15.4-13.3s-14.4,4.6-15.4,11.2v1h0ZM237.3,120.3h0v33.7h9.4v-17.9c0-6.1,2.5-8.7,7.4-8.7h3.5v-7.1h-3.5c-4,0-6,1.5-7.4,4.6h-.5v-4.6h-8.9ZM199.6,107.6h0v46.4h9.4v-18.9c0-6.1,3.5-8.2,7.4-8.2s6,2,6,6.1v20.9h8.9v-21.9c0-8.2-5-12.2-11.9-12.2s-8.9,3.1-9.9,4.1h-.5v-16.3h-9.4,0ZM171.3,144.3h0c0-2.5,1.5-3.6,4.5-4.1l8.9-1v.5c0,5.6-3.5,8.7-8.4,8.7s-5-2-5-4.1h0ZM162.9,132.1h8.9c.5-4.1,2.5-5.6,7-5.6s6,1.5,6,6.1v1l-10.9,1c-6.5,1-11.9,4.1-11.9,10.2s5,9.7,12.4,9.7,8.9-2.5,9.9-4.1h1v3.6h8.4v-20.9c0-8.7-6.5-13.3-14.9-13.3s-14.9,4.6-15.9,11.2v1h0ZM132.1,134.1h10.4c4.5,0,7.4,2,7.4,6.6s-3,6.1-7.4,6.1h-10.4v-12.8ZM132.1,115.3h10.4c4,0,6.9,1.5,6.9,5.6s-3,6.1-6.9,6.1h-10.4v-11.7h0ZM122.6,107.6h0v46.4h22.4c7.9,0,14.4-4.1,14.4-12.2s-5.5-10.2-8.4-11.2v-.5c2.5-.5,7.9-3.1,7.9-10.7s-6-11.7-13.9-11.7h-22.4Z"/>
  <polygon class="st0" points="90.4 137.7 90.4 137.7 0 137.7 0 155 90.4 155 90.4 137.7"/>
  <polygon class="st0" points="90.4 114.7 90.4 114.7 0 114.7 0 131.6 90.4 131.6 90.4 114.7"/>
  <polygon class="st0" points="90.4 22.9 90.4 22.9 0 22.9 0 39.8 90.4 39.8 90.4 22.9"/>
  <polygon class="st0" points="90.4 68.8 90.4 68.8 0 68.8 0 85.7 90.4 85.7 90.4 68.8"/>
  <polygon class="st0" points="20.8 91.8 20.8 91.8 0 91.8 0 108.6 20.8 108.6 20.8 91.8"/>
  <polygon class="st0" points="20.8 45.9 20.8 45.9 0 45.9 0 62.7 20.8 62.7 20.8 45.9"/>
  <polygon class="st0" points="41.7 .5 41.7 .5 0 .5 0 16.8 41.7 16.8 41.7 .5"/>
  <polygon class="st0" points="90.4 .5 90.4 .5 48.7 .5 48.7 16.8 90.4 16.8 90.4 .5"/>
</svg>