<svg id="Layer_1" data-name="Layer 1" xmlns="http://www.w3.org/2000/svg" viewBox="0 0 438.1 526.89"><defs><style>.cls-1{fill:#fff;}.cls-1,.cls-2,.cls-3,.cls-4,.cls-5{fill-rule:evenodd;}.cls-2,.cls-6{fill:#312783;}.cls-3{fill:none;}.cls-4{fill:#e9c77a;}.cls-5{fill:#e30613;}</style></defs><path class="cls-1" d="M301.61,28.62,253.8,80.82c-14.15,13.17-84.4,83.91-87.33,86.83h0C115.25,213,87,273,87,336.45a216.15,216.15,0,0,0,64.4,154.65c41.47,41.47,96.11,64.4,154.65,64.4s113.18-22.93,154.65-64.4A218,218,0,0,0,445,167.65h0c-31.22-30.24-87.33-86.35-90.25-91.22Z" transform="translate(-86.95 -28.62)"/><path class="cls-2" d="M496.26,313c-1-4.88-1.95-14.15-1.95-14.15a192.87,192.87,0,0,0-53.66-98.55l-1.46.49c-3.42-.49-2.93.49-6.35,0a34.46,34.46,0,0,1,.49-7.32L426,186.68c-1.46-1.46-7.8-7.32-14.14-13.17l-12.69,13.17,2.93.49s5.85,2.93,10.24,2c4.39-1.46,6.83-2.44,8.78-2,.49,1,1.47,1.46,2.44,2.44l2.44,1.95c4.39,3.41,2.93,7.32,2.93,7.32a10.33,10.33,0,0,1-5.37-2.44l-1.95-1.95s-.49-.49-.49,0c-.48,0-1,1.95-1,5.36.49,4.88,1.95,5.37,1,5.86,0,.49-.48.49-1,1-2.44,1.95-1.46,4.39-2,6.83,0,1.47-2.44,2.44-1.47,2.93.49.49,1.47-1,2.93-1.46,1-.49,4.39,1,6.34-1,.49-.49.49-1,1-1.46,1-1,8.78,3.41,11.71.49v-.49l-1.47-1.47c-2.44-2.44-2.92-3.41-3.41-5.85,1.46,0,3.41-.49,4.88-.49l1.95.49c25.37,26.34,42.93,59.52,49.76,94.64l.49.49-21,3.9s4.39,4.88,4.39,5.37-.49-2.93,3.9-3.41c2.93,0-.48,1.46,6.83,4.39.49.48.49,1.46,2,2.44,1.95,1.46,4.87,1.46,6.34,2.44C493.34,315.48,496.75,316.94,496.26,313Z" transform="translate(-86.95 -28.62)"/><path class="cls-1" d="M427.48,207.66c.48-.49,2.44.49,4.39,1-1.47-2.43-1.95-2.92-2.44-5.36l-4.88-2v1.46c1,1.46,1.46,2.44,1,2.93a1.05,1.05,0,0,0-1,1c-1,.49-1,1.95-1.46,3.42,1.46-.49,2.92-.49,3.41-1.47Z" transform="translate(-86.95 -28.62)"/><path class="cls-3" d="M427.48,207.66c.48-.49,2.44.49,4.39,1-1.47-2.43-1.95-2.92-2.44-5.36l-4.88-2v1.46c1,1.46,1.46,2.44,1,2.93a1.05,1.05,0,0,0-1,1c-1,.49-1,1.95-1.46,3.42,1.46-.49,2.92-.49,3.41-1.47Z" transform="translate(-86.95 -28.62)"/><path class="cls-4" d="M347.47,169.12v17.07a4.69,4.69,0,0,1,3.41,4.39,4.3,4.3,0,0,1-4.39,3.91H346c-4.39.48-10.24,1.46-12.68,8.78h0l-3.9,21.46-8.78,8.79V206.2a4.32,4.32,0,0,0-3.91-4.4,4.38,4.38,0,0,0-4.39,4.4v36.1L308,246.69l-4.39-5.37V206.2a4.38,4.38,0,0,0-4.39-4.4,4.31,4.31,0,0,0-3.9,4.4l-.49,28.29L286,225.71l-3.42-21.47v-1c-4.39-11.71-18.05-8.78-18.05-8.78a4.3,4.3,0,0,1-4.39-3.91,4.68,4.68,0,0,1,3.42-4.39V169.12h-.49c-15.61,15.61-34.64,33.17-48.3,46.83l-1.46,1.47-1.47,1.46c-36.59,32.2-56.59,73.67-56.59,117.57a150.41,150.41,0,0,0,257.1,106.36,149.72,149.72,0,0,0-10.73-222.47l-1.95-2-1.95-1.46C378.2,197.41,360.64,181.8,348,169.12Z" transform="translate(-86.95 -28.62)"/><path class="cls-4" d="M259.65,85.69V75.94l-5.85,4.88c-14.15,13.17-84.4,83.91-87.33,86.83h0C115.25,213,87,273,87,336.45a216.15,216.15,0,0,0,64.4,154.65c41.47,41.47,96.11,64.4,154.65,64.4s113.18-22.93,154.65-64.4A218,218,0,0,0,445,167.65h0c-31.22-30.24-87.33-86.35-90.25-91.22l-.49,10.24c3.41,4.88,18.54,21.47,85.86,86.84h0a210.21,210.21,0,0,1,77.08,162.94c0,116.6-94.64,211.25-211.24,211.25A211.55,211.55,0,0,1,94.76,336.45c0-61,27.32-119,77.08-162.94V173h0c1-.49,73.18-73.67,86.84-86.35Z" transform="translate(-86.95 -28.62)"/><path class="cls-4" d="M328.93,185.71a3.16,3.16,0,0,0,2.93-2.93h0a3.27,3.27,0,0,0-2.93-3.42H282.58a3.27,3.27,0,0,0-2.92,3.42h0a3.15,3.15,0,0,0,2.92,2.93Z" transform="translate(-86.95 -28.62)"/><path class="cls-5" d="M304.05,169.12c-7.81-4.88-7.32-16.59-7.32-16.59,1-22.93-9.27-22.93-12.2-24.88-2.92-1.46-8.78-1.46-4.87-10.73,3.9-9.76,1-10.74-8.79-30.25-10.24-19.51,16.1-40,16.1-40S278.19,54,290.88,81.3c0,0,4.87,9.76-3.42,22.93-6.83,10.74,1,21.47,1,21.47s18.05,20,18.05,32.69C306,171.07,304.05,169.12,304.05,169.12Z" transform="translate(-86.95 -28.62)"/><path class="cls-5" d="M303.07,32s-17.56,15.12-3.41,41,11.71,21,10.73,31.71c-1,11.22,4.88,8.78,4.88,8.78s8.78-2,2,12.2c-6.83,15.12-7.32,20-3.9,25.86,0,0-1-1.47-12.69-22-9.27-16.1,10.25-36.1,7.32-58.54C308,71.06,298.68,41.79,303.07,32Z" transform="translate(-86.95 -28.62)"/><path class="cls-5" d="M308.44,44.23s-1,7.31,9.27,11.22S327,73,322.59,81.3c-4.88,7.81-8.78,21.47,6.34,21.47,8.29,0-.49,14.15-.49,14.15s-5.85,7.32-5.85,9.27c0,0,1,1.46,3.41-2.93,6.34-10.25,38.06-32.69,14.64-38.05,0,0-12.69-1-7.32-12.2,5.85-11.22,0-17.07-5.37-19C322.1,52.52,308.93,48.13,308.44,44.23Z" transform="translate(-86.95 -28.62)"/><path class="cls-1" d="M302.58,251.57l-49.27-48.79Z" transform="translate(-86.95 -28.62)"/><path class="cls-1" d="M323.08,273l-5.37-5.85L311.37,274l.48.49c1.47,1.46,1.47,3.9,0,5.85L268,323.77l6.83,6.34,48.3-48.3A6.16,6.16,0,0,0,323.08,273Z" transform="translate(-86.95 -28.62)"/><path class="cls-1" d="M253.31,202.78c-2.44-2.93-5.85-2.93-8.78,0L174.28,273c-2.93,2.44-1.95,6.83,0,8.78l70.25,69.77c1.95,1.95,6.34,2.92,8.78,0l5.37-5.37-6.34-6.83-.49,1c-1.47,1.46-3.91,1.46-5.86,0l-60.49-60c-1.46-2-1.46-4.39,0-5.85L246,214c1.95-1.46,4.39-1.46,5.86,0l43.9,43.91,6.83-6.34Z" transform="translate(-86.95 -28.62)"/><path class="cls-1" d="M370.4,351.58l5.85-5.37-6.83-6.83-.49,1a3.83,3.83,0,0,1-5.36,0L319.17,296l-6.34,6.83,48.79,48.79C363.57,353.53,368,354.5,370.4,351.58Z" transform="translate(-86.95 -28.62)"/><path class="cls-1" d="M441.14,281.81c1.46-1.95,2.44-5.85,0-8.78L370.4,202.78c-2.44-2.93-6.34-2.44-8.78,0L291.85,273a6.16,6.16,0,0,0,0,8.78l5.37,5.37,6.83-6.34-.49-.49c-1.95-2-1.95-4.39,0-5.85l60-60.5a3.83,3.83,0,0,1,5.36,0l60.5,60.5c1.46,1.46,1.46,3.9,0,5.85l-43.91,43.42,6.34,6.34Z" transform="translate(-86.95 -28.62)"/><path class="cls-1" d="M291.85,398.9l5.37,5.37,6.83-6.83-.49-.49a3.2,3.2,0,0,1,0-5.37L347,347.67l-6.83-6.83-48.3,49.28C289.9,391.58,288.92,396,291.85,398.9Z" transform="translate(-86.95 -28.62)"/><path class="cls-1" d="M361.62,469.15c1.95,2,5.85,3.42,8.78,0l70.74-70.25c1.46-1.95,2.44-6.34,0-8.78L370.4,319.38c-1.47-1.95-5.37-2.93-8.78,0l-5.37,5.85,6.34,6.34,1-.48a3.81,3.81,0,0,1,5.36,0l60.5,60.49a3.84,3.84,0,0,1,0,5.37l-60.5,60.49a3.81,3.81,0,0,1-5.36,0l-44.4-43.91-6.34,6.83Z" transform="translate(-86.95 -28.62)"/><path class="cls-1" d="M244.53,319.38l-5.37,5.85,6.35,6.34.48-.48c1.95-1.47,4.39-1.47,5.86,0l43.9,43.9,6.83-6.34-49.27-49.27A6.18,6.18,0,0,0,244.53,319.38Z" transform="translate(-86.95 -28.62)"/><path class="cls-1" d="M174.28,390.12c-2.93,2.44-1.95,6.83,0,8.78l70.25,70.25c2.44,2.44,6.34,2.93,8.78,0l69.77-70.25c2.92-2.93,1.95-7.32,0-8.78l-5.37-5.86-6.34,6.83.48.49a3.82,3.82,0,0,1,0,5.37l-60,60.49c-1.47,1.47-3.91,1.47-5.86,0L185.5,397a3.84,3.84,0,0,1,0-5.37l44.39-43.91-6.83-6.83Z" transform="translate(-86.95 -28.62)"/><path class="cls-2" d="M212.82,286.69l8.78-8.29v3.41h38.54V278.4l-1.46-1.47,6.34-6.34v16.1Zm26.83,12.2-3.41-3.42,3.41-3.41,3.9,3.41Z" transform="translate(-86.95 -28.62)"/><path class="cls-6" d="M360.15,267.18c1,1,2,2.44,2.93,2.92l2.93-2.92c0-.49-2-2.44-2.93-2.93l-2.93,2.44a14.74,14.74,0,0,0-3.41-2.44l-2.93,2.93a18.11,18.11,0,0,0,3.42,2.92Z" transform="translate(-86.95 -28.62)"/><path class="cls-6" d="M372.35,283.76h17.07V261.81a18.93,18.93,0,0,1-2.92,1h-3.91c-2.44,0-3.41,2.44-3.9,4.39-1-.49-2.93,1-2.93,2.44,0,.48-.48,1-.48,1.46v5.85H385v2.44H350.4V253.52l-6.83,6.34a8.21,8.21,0,0,0,2.43,1v18.53c0,.49-.48,3.91-.48,5.37-.49.49-.49,1.46-1,1.46a4.81,4.81,0,0,1-2,2.44,15.13,15.13,0,0,1-3.9,1,3,3,0,0,1-2-.49c-2.43-.49-6.34-3.9-5.85-6.34,0-.49-.49-2-.49-2.44a9.21,9.21,0,0,0-1,3.41v1c0,6.34,5.85,9.27,10.73,9.27h2.44c4.88-.49,6.83-6.34,7.32-10.25h22.44Zm12.2-11.22h-4.4v-.48a2.11,2.11,0,0,1,2-2h.48v-.48c-.48,0-.48-.49,0-1a2.11,2.11,0,0,1,2-1.95Z" transform="translate(-86.95 -28.62)"/><path class="cls-6" d="M402.6,269.13c-.49.49-.49.49-1,.49-1,0-2.44,0-2.93,1a9.2,9.2,0,0,0-1,3.42c-1,0-1.47,0-2,.49a2.67,2.67,0,0,0-1.47,2.43,1.71,1.71,0,0,0-.49,1v5.85h11.71v2c0,2.44-1.46,3.9-3.9,4.87a9.18,9.18,0,0,1-3.9,1h-2a203.35,203.35,0,0,0-23.42-3.41c5.37,1.46,7.32,5.36,6.34,5.36a48.27,48.27,0,0,1,18.05,1c.49.49,3.9.49,3.9.49h1a2.4,2.4,0,0,1,1.46-.49c.49,0,1-.49,1.47-.49,1.95-1,4.39-3.42,4.39-5.37a20.11,20.11,0,0,0,.49-4.88V266.69C407,269.13,405.52,268.64,402.6,269.13Zm1.95,10.24h-5.37v-1.46c0-.49,0-1,.49-1,0-.48.49-.48,1-.48h.49v-1c0-1,0-1.46.49-1.46a1.79,1.79,0,0,1,1.46-.49h1.47Z" transform="translate(-86.95 -28.62)"/><path class="cls-6" d="M234.28,268.64c0,1-.48,2.44.49,3.42a1.53,1.53,0,0,0,1,.48,1.8,1.8,0,0,0,1.46-.48c.49,0,.49-1,1-1,.49.49,1,1,1.46,1s.49,0,.49-.49h.49c0-.49.48-1.47.48-1.95s-.48-1.95-.48-2.93c-.49.49-1,1-1,1.46s.49,1.47.49,2l-.49.49a1.67,1.67,0,0,1-1-.49c0-1.46-.49-2.43-.49-3.9a7,7,0,0,0-1,1.47c0,1,1,1.95-.49,2.92h-.48c-.49,0-.49,0-1-.49-.49-1,.49-2.43-.49-3.41-1,.49-2,2.44-1.46,3.41C233.31,269.62,233.8,268.64,234.28,268.64Z" transform="translate(-86.95 -28.62)"/><path class="cls-6" d="M272.34,272.06a7.2,7.2,0,0,1,.49,2.92,6.58,6.58,0,0,1-2.44,4.88c1,0,1,.49,1.46.49,2.44.49,3.9,4.88,3.9,6.83a13.64,13.64,0,0,1-.49,3.9c-2.43,3.91-4.87,4.39-8.78,3.91l-3.9-.49a136.38,136.38,0,0,0-15.29-3.26c1.41.87,3.09,4.23,3.09,4.23,2-.48,13.18,1.47,18.05,1.95,1.47.49,6.35-.48,7.32-1.46a12,12,0,0,0,4.88-9.76C280.63,281.33,277.7,275.47,272.34,272.06Z" transform="translate(-86.95 -28.62)"/><path class="cls-6" d="M247.29,291.24a1.91,1.91,0,0,0-.32-.16C246.43,291.08,246.58,291.12,247.29,291.24Z" transform="translate(-86.95 -28.62)"/><path class="cls-6" d="M234.77,377l-8.78.48a1.71,1.71,0,0,1-.49,1l8.78-1Z" transform="translate(-86.95 -28.62)"/><path class="cls-6" d="M233.8,374a1,1,0,0,0,1-1h-.49c0-.49-5.36.49-7.8.49,0,.49-.49.49-.49,1h1.46S231.85,374,233.8,374Z" transform="translate(-86.95 -28.62)"/><path class="cls-6" d="M267,385.24a6.57,6.57,0,0,0-4.88,6.34c0,2.93,1.47,5.86,4.88,8.29h-9.76V371.09l-6.34,6.83a6.66,6.66,0,0,0,1.95,1.46v20.49H246c-1-3.41-2.92-4.87-5.36-5.36L239.16,393c-.48,0-1.46,1.47-1.95,1.47-2.44.49-4.39,1.95-5.36,5.36H218.19V371.09l-6.35,6.34a10.84,10.84,0,0,0,2.44,1.47v25.37h17.57l.48.48c1,3.42,4.39,4.39,6.83,4.88a7.57,7.57,0,0,0,6.83-4.88v-.48h34.15v-4.4h-7.31c-.49,0-1-1-1-1-2.44-1-4.88-2.93-4.88-5.37,0-1.95,1.95-2.92,3.9-2.92,1,0,9.27,0,9.27-4.4v-1.95C278.68,385.73,268.92,384.26,267,385.24Zm-27.81,19.51c-2.44,0-3.41-1.46-3.41-2.92a2.58,2.58,0,0,1,2.93-2.93h.48a2.93,2.93,0,1,1,0,5.85Z" transform="translate(-86.95 -28.62)"/><path class="cls-6" d="M358.69,390.12a7.93,7.93,0,0,1-2.93,1.46c0,.49,1.95,1,1.95,1.95v5.37h-5.36c-1.47-2.93-2.93-5.86-4.39-8.29,2-3.91,3.41-4.88,3.41-9.27,0-7.32-2.93-9.27-8.78-12.69a8.66,8.66,0,0,0-1.46-1.95,6.18,6.18,0,0,1-2-4.39v-.49c-2.92,2.44-1.46,7.32,0,8.3v.48c-2.44.49-5.85,5.37-5.85,7.81,0,0,.49-.49.49,0,2.44-2.44,3.41-3.9,7.32-3.42h1c2.44.49,3.9,2.93,3.9,5.37,0,1.95,0,3.9-1,5.37-1-1.47-1.95-3.42-2.93-4.88-.49.49-.49.49-1,.49-2.93,2-5.86,3.41-5.86,7.31,0,2.44,2,5.37,3.42,7.32-1.47,1.95-2.93,3.9-3.42,5.86l-1,3.41a7.89,7.89,0,0,0,6.83,7.81h.48a7.09,7.09,0,0,0,6.83-7.32c0-2.93-2.92-6.83-4.39-9.27a6.7,6.7,0,0,1,1.47-1.95l5.36,9.27h11.71V386.21c0-.48-.49-1-.49-1.46C360.64,386.7,360.64,388.65,358.69,390.12Zm-18.05-3.42c0,.49.49.49.49,1a20.9,20.9,0,0,1,1.46,1.95c0,.49-1,1.46-1,1.46h-.48c-.49-1-1.47-2.44-1.47-2.44C339.66,388.17,340.64,387.19,340.64,386.7Zm1,21h-.48a2.11,2.11,0,0,1-2-1.95c0-1,1-2.93,2-4.39l.48-.49c.49,1,2.44,3.9,2.44,4.88S342.59,407.68,341.61,407.68Z" transform="translate(-86.95 -28.62)"/><circle class="cls-6" cx="271.74" cy="350.77" r="1.95"/><path class="cls-6" d="M392.35,403.78V390.61a5.18,5.18,0,0,0-4.39-4.88s-1.46-1.47-1.95-1.47c0,0-1,1.47-1.46,1.47a6.72,6.72,0,0,0-4.4,6.34h-8.78v-6.83l1-1.46h.49v-1c-2.44.49-5.37-3.9-5.86-5.85v20h18v-5.37l1-.49c.49,0,1.46,0,1.46,1v6.83h-21v4.88h25.86Z" transform="translate(-86.95 -28.62)"/><path class="cls-6" d="M400.64,395.48V396c.49.49,1,.49,2,.49,1,.49.48,4.88.48,5.85,0,2-.48,3.91-2.92,3.91a21.4,21.4,0,0,1-7.32-.49c-7.32-1-17.08,3.41-14.15,3.41,2.44-.48,7.32,1.47,7.32,1.47,4.39-3.91,12.68-1,15.61-1s6.34-2.44,6.34-5.36V391.09l-.49-.48C405.52,394.51,404.06,393.53,400.64,395.48Z" transform="translate(-86.95 -28.62)"/><path class="cls-6" d="M406.5,384.75a2.1,2.1,0,0,0-1.95,1.95,2.22,2.22,0,0,0,1.95,2.44,2.61,2.61,0,0,0,2.44-2.44C408.94,385.73,407.47,384.75,406.5,384.75Z" transform="translate(-86.95 -28.62)"/><path class="cls-2" d="M279.17,508.67l-4.88,22.93c-2.44-.49-3.9-2.44-5.37-5.37l-9.75-21-3.91,16.59c-.49,1.95-1,3.41.49,4.88l-6.34-1c2-1,2.44-2.44,2.93-4.88l3.9-17.56a6.9,6.9,0,0,0-.49-5.37l5.37,1.47,11.71,24.39,3.41-16.1c.49-1.95,1-3.41-.49-4.88l6.34,1.47C280.14,505.25,279.66,506.23,279.17,508.67Z" transform="translate(-86.95 -28.62)"/><path class="cls-2" d="M242.58,522.81l-7.32-2.43a6.23,6.23,0,0,0,3.42-4.4L245,498.91c.49-2,1-3.42,0-4.88l7.32,2.44c-2,1-2.44,1.95-3.42,3.9l-5.85,17.08C242.09,519.89,241.6,521.35,242.58,522.81Z" transform="translate(-86.95 -28.62)"/><path class="cls-2" d="M233.8,489.15l-5.37-2.92v1.95L227,489.64l-1.47,1.46-14.63,13.18a11.52,11.52,0,0,1-4.39,2.92l6.34,2.93a6.49,6.49,0,0,1-.49-2.44c.49-.49.49-1,1-1.46l5.36-4.88,6.83,2.93,2.93,1.46-1,6.83A3.7,3.7,0,0,1,227,515c0,.49-.49.49-1.47,1l6.83,3.91a13.49,13.49,0,0,1-1-5.86Zm-5.37,13.66-2.93-1.46-4.39-2,4.39-3.91,4.39-3.9Z" transform="translate(-86.95 -28.62)"/><path class="cls-3" d="M212.33,507.69a6.49,6.49,0,0,0,.49,2.44l-6.34-2.93a11.52,11.52,0,0,0,4.39-2.92L227,489.64l1.46-1.46v-1.95l5.37,2.92L231.36,514a13.49,13.49,0,0,0,1,5.86L225,516c1.46-.48,1.95-.48,1.95-1a3.7,3.7,0,0,0,.48-2.44l1-6.83-9.76-4.39-5.36,4.88c-.49.49-.49,1-1,1.46m16.1-4.88,1.46-11.22-8.78,7.81Z" transform="translate(-86.95 -28.62)"/><path class="cls-2" d="M192.82,497.45l-6.35-4.39c2,0,2.93-1.47,4.4-2.93L201.11,475c1-1.46,1.95-2.92,1.46-4.87l7.81,5.36c4.88,3.42,5.85,7.81,3.9,11.22-1.95,2.93-5.36,2.93-9.27,2.44l.49,12.2a9.62,9.62,0,0,0,1,4.88l-1.95-1H204a8.46,8.46,0,0,1-2.93-5.85V485.25c4.39,1.95,7.32,1.95,9.27-1,1.46-1.95,1-4.87-1.95-6.83A11.24,11.24,0,0,0,206,476l-11.71,16.59C193.3,494.52,192.33,495.49,192.82,497.45Z" transform="translate(-86.95 -28.62)"/><path class="cls-2" d="M166,475l-5.36-5.36c1.95,0,2.93-1,4.39-2.44L177.69,454c1.47-1.47,2.44-2.44,2.44-4.88l5.37,5.36c-1.95,0-2.93,1-4.39,2.44l-4.39,4.88,10.73,10.25,4.39-4.39c1.46-1.47,2.44-2.93,2.44-4.88l5.37,5.36c-2,0-2.93,1-4.39,2.44l-12.69,13.18c-1.46,1.46-2.44,2.44-2.44,4.87l-5.36-5.36c1.95,0,3.41-1,4.87-2.44l5.86-6.34-11.22-10.74-5.86,6.35C167,471.59,166,473.05,166,475Z" transform="translate(-86.95 -28.62)"/><path class="cls-2" d="M162.57,438.9l3.9-1c1-.49,1.47-.49,1.95-1s.49-1,.49-1.95l3.9,5.37L162.57,457v-7.8l5.85-8.78-5.85,1.46Zm-17.08,8.3c-.48,0-1,1-1,1.95l-3.9-5.37a8.21,8.21,0,0,0,4.87,0l17.08-4.88v2.93l-5.85,1.46,5.36,6.83.49-1V457l-2.93,4.39a8.82,8.82,0,0,0-1.46,5.37l-4.88-6.34c1,0,1.46.49,1.95,0a6.84,6.84,0,0,0,1.47-1.95l3.9-5.86-6.83-8.29-6.83,2c-.49,0-1,.49-1.47,1Z" transform="translate(-86.95 -28.62)"/><path class="cls-3" d="M145.49,447.2c-.48,0-1,1-1,1.95l-3.9-5.37a8.21,8.21,0,0,0,4.87,0l21-5.85c1-.49,1.47-.49,1.95-1s.49-1,.49-1.95l3.9,5.37-13.17,21a8.82,8.82,0,0,0-1.46,5.37l-4.88-6.34c1,0,1.46.49,1.95,0a6.84,6.84,0,0,0,1.47-1.95l3.9-5.86-6.83-8.29-6.83,2c-.49,0-1,.49-1.47,1m16.59,2.92,6.34-9.75-11.7,2.92Z" transform="translate(-86.95 -28.62)"/><path class="cls-2" d="M157.69,417l-4.88-8.29a4.16,4.16,0,0,1-1.46,2.44,3.74,3.74,0,0,1-1.95,1L146.47,414l-5.85,3.42-6.83,3.41c-2,1.47-3.42,1.95-5.37,1l4.39,8.29c2.44,3.9,4.88,6.34,7.81,6.83,1.95,1,3.9.49,5.85-.49,3.42-1.95,4.39-5.36,3.42-9.75.48.48,1,.48,1.46,1a5.27,5.27,0,0,0,5.37,0C160.13,426.22,160.62,421.83,157.69,417Zm-11.22,12.2a6.22,6.22,0,0,1-2.44,3.41c-1.46.49-2.44,1-3.41.49-2,0-3.42-1.46-4.88-3.9a11.75,11.75,0,0,1-1.47-3.42l6.35-3.41,2.92-1.47a10,10,0,0,1,2,2.93,3.69,3.69,0,0,1,1,2A4.12,4.12,0,0,1,146.47,429.15Zm7.32-4.88a5.29,5.29,0,0,1-2.44.49,9.05,9.05,0,0,1-4.39-3.42c0-.49-.49-1-.49-1.46s0-.49-.49-.49l.49-.49,4.88-2.44,2-1c1,.48,1.46,1.46,1.95,1.95C156.72,420.36,156.23,422.8,153.79,424.27Z" transform="translate(-86.95 -28.62)"/><path class="cls-3" d="M157.69,417l-4.88-8.29c0,1.95-1.46,2.44-3.41,3.41l-15.61,8.78c-2,1.47-3.42,1.95-5.37,1l4.39,8.29c3.9,6.83,8.78,8.78,13.66,6.34,3.42-1.95,4.39-5.36,3.42-9.75,2.43,2,4.87,2.44,6.83,1C160.13,426.22,160.62,421.83,157.69,417ZM144,432.56c-2.93,1.46-6.34.49-8.29-3.41a11.75,11.75,0,0,1-1.47-3.42l9.27-4.88a10,10,0,0,1,2,2.93C147.45,427.19,147,431.1,144,432.56Zm9.76-8.29c-2.44,1-4.88.49-6.83-2.93a3.69,3.69,0,0,0-1-1.95l7.32-3.9c1,.48,1.46,1.46,1.95,1.95C156.72,420.36,156.23,422.8,153.79,424.27Z" transform="translate(-86.95 -28.62)"/><path class="cls-2" d="M118.17,395.48l-2.43-7.31a5.3,5.3,0,0,0,5.36,0l17.56-5.37c2-.49,3.42-1,3.91-2.93l4.88,14.64L143.06,396a10.16,10.16,0,0,0,0-5.36,28.86,28.86,0,0,0-2-3.91l-7.31,2.44,2,6.34L131.83,397c1-1,.49-2.44,0-4.39l-1-2.44-8.29,2.44A7.09,7.09,0,0,0,118.17,395.48Z" transform="translate(-86.95 -28.62)"/><path class="cls-2" d="M125.49,348.65a16,16,0,0,1,6.34,2,13.67,13.67,0,0,1,7.81,11.22,13.79,13.79,0,0,1-12.2,17.56h-2V375a1.82,1.82,0,0,0,1.47-.48c6.83-1,10.73-6.35,9.75-12.2-.48-5.37-5.36-9.27-11.22-8.78ZM113.3,355a12.05,12.05,0,0,1,9.27-5.85,6.14,6.14,0,0,1,2.92-.49v4.88H124c-6.83,1-11.22,6.34-10.25,12.19s5.37,9.27,11.71,9.27v4.39a13.69,13.69,0,0,1-9.27-3.41c-2.92-2-4.88-5.37-5.36-9.76A12.7,12.7,0,0,1,113.3,355Z" transform="translate(-86.95 -28.62)"/><path class="cls-3" d="M113.3,355a12.05,12.05,0,0,1,9.27-5.85,15,15,0,0,1,9.26,1.46,13.67,13.67,0,0,1,7.81,11.22,13.79,13.79,0,0,1-12.2,17.56A14.58,14.58,0,0,1,116.22,376c-2.92-2-4.88-5.37-5.36-9.76A12.7,12.7,0,0,1,113.3,355M124,353.53c-6.83,1-11.22,6.34-10.25,12.19,1,6.35,6.35,10.25,13.18,8.79,6.83-1,10.73-6.35,9.75-12.2C136.23,356.46,130.86,352.55,124,353.53Z" transform="translate(-86.95 -28.62)"/><path class="cls-2" d="M109.39,326.21l.49-7.81a6.24,6.24,0,0,0,4.88,2l7.81.49,11.7-5.85a26.32,26.32,0,0,0,4.39-3.42l-.48,6.34-12.69,6.35,7.32,5.36a8.25,8.25,0,0,0,2.44,1,2.52,2.52,0,0,0,1.95-1l-.49,6.35-14.63-10.74-7.81-.49C112.32,324.74,110.86,324.74,109.39,326.21Z" transform="translate(-86.95 -28.62)"/><path class="cls-2" d="M112.32,301.82l1.46-7.32c1,1.46,2.44,1.95,4.39,2.44l20,3.9.48-1.95c.49-2.93.49-4.88-.48-6.34l4.39,2.44-4.39,19.51-3.91-2.44a4.79,4.79,0,0,0,2.44-3.41l.49-3.42-19.51-3.9C115.25,300.84,113.78,300.84,112.32,301.82Z" transform="translate(-86.95 -28.62)"/><path class="cls-2" d="M116.71,283.28l2.44-7.32c1,2,1.95,2.44,4.39,3.41l17.08,5.37c1.95.49,3.41,1,5.36,0l-2.44,7.32c-1-1.95-1.95-2.44-4.39-3.42l-17.07-5.36C120.13,282.79,118.66,282.3,116.71,283.28Z" transform="translate(-86.95 -28.62)"/><path class="cls-2" d="M134.27,254a16.4,16.4,0,0,0-6.83,7.31c-1.46,3.91-.48,6.83,1.47,7.81,1,0,1.46.49,2.44,0,1.46,0,3.41-1.95,6.34-4.39,4.39-3.42,6.83-4.88,10.24-3.9,3.91,2,5.37,6.83,2.93,12.68a36.16,36.16,0,0,1-3.41,5.85l-4.39-1.95a9.63,9.63,0,0,0,5.36-5.36c1-2.93.49-5.37-1.46-6.35-2.44-1-4.39.49-7.81,3.42a42.93,42.93,0,0,1-4.88,4.39,7.2,7.2,0,0,1-6.34,0c-3.9-1.46-5.85-7.32-3.41-14.15a37.4,37.4,0,0,1,4.39-6.34Z" transform="translate(-86.95 -28.62)"/><path class="cls-2" d="M138.18,235.47l3.9-6.35c.49,2,1.46,2.93,3.41,3.91l15.62,9.27c1.95,1,2.92,1.46,4.87,1l-4.87,8.3c-2.93,4.87-7.32,6.34-10.74,4.39-2.92-2-3.41-4.88-2.92-8.78l-12.2,1a49.09,49.09,0,0,0-5.37,1.46l1-2,.49-.48c1-2,2.92-2.93,5.36-2.93l14.15-1.47c-1.46,4.88-1.46,7.81,1.46,9.27,2.44,1.47,5.37.49,6.83-2.44a10.52,10.52,0,0,0,1.47-2.43l-17.56-10.25A4.69,4.69,0,0,0,138.18,235.47Z" transform="translate(-86.95 -28.62)"/><path class="cls-2" d="M159.64,214l14.15,11.22c2,1,2.93,1.95,4.88,1.47l-9.27,12.19L166,236.44a9,9,0,0,0,4.4-3.41,22,22,0,0,0,2-3.42L166,224.73l-3.9,5.37-3.41-2.44c1.46,0,2.44-1.46,3.41-2.93l1.47-1.95-7.81-6.34a21.69,21.69,0,0,0-3.42,3.9,12,12,0,0,0-2.92,7.81L146,223.27l10.74-13.66C156.72,211.56,157.69,212.54,159.64,214Z" transform="translate(-86.95 -28.62)"/><path class="cls-2" d="M175.25,198.39l15.62,7.32a40.44,40.44,0,0,0,5.85,1.95l-3.9,4.39c-.49-1-1.47-1-1.95-1.46l-19.52-9.27,7.81,16.58a10.08,10.08,0,0,0,1.46,2.44,31,31,0,0,0,3.42,1l-4.88,4.39L166.47,197.9C168.91,196.44,171.35,196.93,175.25,198.39Z" transform="translate(-86.95 -28.62)"/><path class="cls-2" d="M178.67,186.68l5.37-5.37c0,2,1,2.93,2.43,4.88l12.69,12.69c1.46,1.46,2.44,2.44,4.39,2.44l-5.37,5.36c0-2-1-2.92-2.44-4.39l-12.68-13.17C181.6,187.66,180.62,186.68,178.67,186.68Z" transform="translate(-86.95 -28.62)"/><path class="cls-2" d="M205,193.51l-16.58-17.07c1.46-2,3.9-1.47,7.31-1l22.93,2.93L207,166.19c-1.46-1.95-2.43-2.93-4.39-2.44l4.39-4.88c0,2.44,1,3.42,2.44,4.88l12.69,13.17c1.46,1.47,2.44,2.44,4.39,2.44l-3.9,3.91-26.84-3.42L207,191.07c1.47,2,2.93,2.93,4.88,2.44L207,197.9C207.45,196,206.48,195,205,193.51Z" transform="translate(-86.95 -28.62)"/><path class="cls-2" d="M215.75,153.51c1-3.42,1.95-5.86,4.39-8.3a11.08,11.08,0,0,1,7.8-2.92c2.44.48,4.39,2,6.34,3.9l9.27,9.76c1.47,1.46,2.44,2.44,4.88,2.44l-5.85,5.36c.49-1.95-.49-3.41-2-4.88l-8.78-8.78a11.34,11.34,0,0,0-5.37-3.9c-1.95,0-3.42.49-5.37,2.44-1.46,1.46-2.44,2.93-2.44,4.88,0,1.46.49,2.92,2.44,4.88l9.76,9.75c1.46,1.47,2.44,2.93,4.39,2.44L229.89,176c0-1.47-1-2.93-2.44-4.39l-12.68-13.17c-1.46-1.47-2.44-2.44-4.39-2.44l3.9-3.91Z" transform="translate(-86.95 -28.62)"/><path class="cls-2" d="M340.64,505.74c-.49-1.46,0-2.93,1.95-3.9a2.76,2.76,0,0,1,3.41,2c.49,1.95,0,3.41-1.95,3.9A2.46,2.46,0,0,1,340.64,505.74Z" transform="translate(-86.95 -28.62)"/><path class="cls-2" d="M385,517.45a2.79,2.79,0,0,1,2-3.42c1.47-1,2.93,0,3.42,2a2.52,2.52,0,0,1-1.46,3.42C387,519.89,385.52,519.4,385,517.45Z" transform="translate(-86.95 -28.62)"/><path class="cls-2" d="M392.84,514a3.08,3.08,0,0,1,2-3.9,2.91,2.91,0,0,1,3.9,2c.49,1.47-.48,2.93-1.95,3.9A3.31,3.31,0,0,1,392.84,514Z" transform="translate(-86.95 -28.62)"/><path class="cls-2" d="M468,319.38a2.74,2.74,0,0,1-2.93-2.44c-.49-1.46,1-2.44,2.44-2.93a2.7,2.7,0,0,1,.49,5.37ZM467,313a2.73,2.73,0,0,1-2.92-2.44,2.15,2.15,0,0,1,1.95-2.93,2.77,2.77,0,0,1,3.41,1.95A3.67,3.67,0,0,1,467,313Zm35.13,58.54c-1,.49-2.44-.49-2.93-1.95a3.68,3.68,0,0,1,2.44-3.42,3.1,3.1,0,0,1,2.93,2.44A2.73,2.73,0,0,1,502.12,371.58Z" transform="translate(-86.95 -28.62)"/><path class="cls-3" d="M468,319.38a2.74,2.74,0,0,1-2.93-2.44c-.49-1.46,1-2.44,2.44-2.93a2.7,2.7,0,0,1,.49,5.37M467,313a2.73,2.73,0,0,1-2.92-2.44,2.15,2.15,0,0,1,1.95-2.93,2.77,2.77,0,0,1,3.41,1.95A3.67,3.67,0,0,1,467,313m35.13,58.54c-1,.49-2.44-.49-2.93-1.95a3.68,3.68,0,0,1,2.44-3.42,3.1,3.1,0,0,1,2.93,2.44A2.73,2.73,0,0,1,502.12,371.58Z" transform="translate(-86.95 -28.62)"/><polygon class="cls-5" points="222.95 488.35 216.12 481.03 209.29 488.35 216.12 495.18 222.95 488.35"/><path class="cls-2" d="M464.07,341.82l33.66,1v-6.35a75.22,75.22,0,0,0-.49-10.73l-4.88,4.88s1.95-.49,1.95,2.93v2.92c0,1.95-.48,0-.48,2.44h-2.44l-20.49-.49c-2,0-1.47-1.95-1.47-1.95s-2.44,1-1.95,2.93C467.48,339.38,465.53,339.38,464.07,341.82Z" transform="translate(-86.95 -28.62)"/><path class="cls-2" d="M408,498.91l-10.73-18.05c0-.49,0-.49-.49-.49l.49,1c.49,1-1.46,2.44-.49,4.88a3.7,3.7,0,0,0-1.46,4.39s2-2,3.9,1l3.42,6.34h-.49a176.69,176.69,0,0,1-25.37,12.69h-.49l-4.88-12.69-.48-.48v-1c-1,.49-1.47,2.44-2,2.44v1.95l.49,1c-1.95,1-1.95,3.9-1.95,3.9,1.46-1,2.44-.49,3.42,2.44l2.92,7.8s.49,2.93-1.46,3.42c-2,1-3.42,0-5.37-4.88h-.49a205.12,205.12,0,0,1-34.15,8.29s-6.34,1-7.31-2.92l-3.42,7.8a215,215,0,0,0,42.93-8.29v-.49s3.42,7.81,10.25,4.39c3.9-1.95,3.9-7.32,2.93-9.27,10.73-3.9,20.49-9.27,30.24-15.12Z" transform="translate(-86.95 -28.62)"/><path class="cls-2" d="M385.52,141.31a2.1,2.1,0,0,0,2-1.95,2.23,2.23,0,0,0-2-2.44c-1.46,0-1.95,1-1.95,2.44A1.79,1.79,0,0,0,385.52,141.31Z" transform="translate(-86.95 -28.62)"/><path class="cls-2" d="M404.55,171.56l2.44-2.93c-4.39-4.39-8.78-8.29-8.78-8.29-8.3-7.81-15.62-14.64-21.47-20.49l-1.95-1.95-.49-.49-10.24-9.27-.49,7.32,1.46-1V134l.49.49,1,1,3.42,2.92c-.49,2-1.46,5.86-5.37,12.69-2.44,4.39-3.41,10.73,3.91,17.07l3.9-3.9a23.29,23.29,0,0,1-2.44-1c-2-1-5.37-6.34-1.46-12.19,3.41-5.37,4.39-7.81,4.39-9.76l1,1c6.34,6.34,13.17,12.68,22,20.49,0,0,0,.48,5.36,5.36l-20,21.47h7.81l-.49-1.47,15.61-16.58Z" transform="translate(-86.95 -28.62)"/><path class="cls-2" d="M497.24,351.58l-.49-.49-33.66-2.44c0,2,3.42,2.44,3.42,2.44-.49,1,1,3.41,1,3.41a1.91,1.91,0,0,1,1.95-1.95l22,1.95,1.95-.48c-.49,4.39-1,8.29-1.47,12.19l-17.07-1.46c-.49,2.44,3.41,2.93,3.41,2.93-1,1,1,3.41,1,3.41a2,2,0,0,1,1.46-2.44l10.74,1c-1,4.39-2,9.27-3.42,14.15-1.46,2-4.88,2.43-12.68,2-11.71-1-16.1,10.24-16.1,10.24l5.36.49s1-6.83,9.27-6.83c5.86,0,9.27,1,12.69-.49-8.3,30.25-24.88,57.57-47.81,80.5a212.78,212.78,0,0,1-19,16.59c-4.88-5.86-8.78-3.91-10.24-7.32l-1-2a4.16,4.16,0,0,0-.49,4.39l.49.48s-1.46,1.47,0,3.91l1-.49c1.46-1.46,6.83,1.95,8.29,4.88,1.46,3.9,1,7.8-2.44,10.24-3.9,3.91-11.22,3.91-12.68,7.81l4.39.49c1-1.47,1.95-3.91,5.36-4.88,6.83-2,11.22-8.78,9.27-14.64a216.89,216.89,0,0,0,20-17.07C474.31,438.9,493.83,397.44,497.24,351.58Z" transform="translate(-86.95 -28.62)"/><path class="cls-1" d="M487,307.18c1.95,1,.48,2.44,4.39,2.93l-1-5.37-5.85,1C486,307.67,485.53,306.69,487,307.18Z" transform="translate(-86.95 -28.62)"/><path class="cls-1" d="M412.35,178.88,408,183.75s2.93,2.44,8.3-1Z" transform="translate(-86.95 -28.62)"/></svg>