<?xml version="1.0" encoding="UTF-8"?>
<svg id="Layer_2" data-name="Layer 2" xmlns="http://www.w3.org/2000/svg" viewBox="0 0 833 443.16">
  <defs>
    <style>
      .cls-1 {
        fill: #5d5d5d;
      }

      .cls-2 {
        fill: #224289;
      }
    </style>
  </defs>
  <g id="Layer_1-2" data-name="Layer 1">
    <g>
      <path class="cls-2" d="M312.48,258.06c0,43.84-19.87,82.94-50.74,108.26v-21.24c0-52.12-26.24-98-65.76-124.32,39.51-26.32,65.76-72.2,65.76-124.32v-33.8c0-8.64,6.8-15.67,15.15-15.67h35.59v211.09ZM141.55,390.64v-143.64c42.84,10.61,74.78,50.56,74.78,98.08v45.56c-11.87,3.59-24.41,5.55-37.39,5.55s-25.52-1.96-37.39-5.55M45.4,258.06V46.97h35.59c8.36,0,15.15,7.03,15.15,15.67v303.68c-30.88-25.32-50.74-64.43-50.74-108.26M276.88,0C243.49,0,216.33,28.1,216.33,62.64v33.8c0,47.52-31.95,87.47-74.78,98.08V62.64C141.55,28.1,114.38,0,80.99,0H0v258.06c0,102.07,80.27,185.1,178.94,185.1s178.94-83.04,178.94-185.1V0h-80.99"/>
      <g>
        <polygon class="cls-1" points="455.29 215.25 440.1 215.25 416.36 242.63 416.17 242.63 416.17 215.25 404.6 215.25 404.6 282.92 416.17 282.92 416.17 254.98 416.36 254.98 440.74 282.92 456.3 282.92 425.76 248.62 455.29 215.25"/>
        <rect class="cls-1" x="470.79" y="234.73" width="11.11" height="48.2"/>
        <path class="cls-1" d="M476.39,229.64c1.94,0,3.57-.65,4.83-1.93,1.27-1.28,1.92-2.95,1.92-4.97s-.64-3.69-1.92-4.98c-1.27-1.27-2.89-1.92-4.83-1.92s-3.49.64-4.79,1.91c-1.3,1.29-1.96,2.96-1.96,4.98s.66,3.69,1.96,4.97c1.29,1.27,2.9,1.92,4.79,1.92"/>
        <path class="cls-1" d="M539.22,282.92h11.11v-28.75c0-4.14-.8-7.76-2.38-10.74-1.59-2.99-3.8-5.34-6.56-6.98-2.76-1.64-5.95-2.47-9.48-2.47-4.47,0-7.92.88-10.24,2.62-2.09,1.57-3.63,3.28-4.57,5.1l-.05-6.97h-10.93v48.2h11.11v-24.33c0-4.76,1.1-8.42,3.28-10.87,2.18-2.46,5.02-3.66,8.68-3.66,3.14,0,5.63.88,7.4,2.62,1.75,1.73,2.64,4.5,2.64,8.23v28Z"/>
        <path class="cls-1" d="M579.8,258.78v-.85c0-4.55,1.24-8.09,3.68-10.5,2.46-2.42,5.61-3.65,9.36-3.65s7.06,1.23,9.49,3.65c2.42,2.41,3.65,5.95,3.65,10.5v.85c0,4.44-1.24,7.94-3.7,10.41-2.49,2.52-5.58,3.74-9.44,3.74s-6.86-1.22-9.35-3.74c-2.45-2.47-3.69-5.97-3.69-10.41M579.45,280.31c3.3,1.92,6.95,2.89,10.84,2.89,3.06,0,5.65-.4,7.71-1.18,2.08-.8,3.78-1.85,5.07-3.11,1.11-1.1,2.02-2.18,2.7-3.23l.1,13.87c0,1.38-.5,1.92-1.76,1.92h-28.16v10.27h31.07c3.02,0,5.45-.95,7.22-2.81,1.76-1.86,2.66-4.35,2.66-7.4v-56.8h-10.84v6.68h-.09c-1.16-1.88-2.88-3.66-5.13-5.29-2.47-1.8-6.02-2.71-10.55-2.71-3.9,0-7.54.99-10.81,2.94-3.27,1.95-5.94,4.76-7.92,8.33-1.98,3.58-2.98,7.94-2.98,12.97v1.41c0,4.96.99,9.3,2.93,12.91,1.95,3.61,4.62,6.42,7.93,8.34"/>
        <path class="cls-1" d="M673.85,258.4v.85c0,4.75-1.24,8.42-3.7,10.93-2.49,2.55-5.57,3.78-9.44,3.78s-6.86-1.24-9.35-3.78c-2.45-2.51-3.69-6.19-3.69-10.93v-.85c0-4.68,1.24-8.33,3.69-10.84,2.5-2.55,5.56-3.78,9.35-3.78s7.05,1.27,9.48,3.78c2.42,2.51,3.66,6.16,3.66,10.84M684.87,215.25h-11.11v25.78h-.08c-.7-1.17-1.65-2.31-2.84-3.4-1.35-1.23-3.08-2.25-5.14-3.03-2.05-.79-4.62-1.19-7.63-1.19-3.9,0-7.53.99-10.8,2.95-3.28,1.95-5.93,4.83-7.88,8.54-1.94,3.69-2.92,8.14-2.92,13.23v1.41c0,5.15,1,9.62,2.97,13.28,1.98,3.67,4.64,6.52,7.92,8.48,3.27,1.95,6.88,2.94,10.72,2.94,4.53,0,8.07-.88,10.54-2.6,2.26-1.58,4.01-3.36,5.22-5.3l.09,6.59h10.93v-67.67Z"/>
        <path class="cls-1" d="M741.58,258.4v.84c0,4.56-1.22,8.16-3.62,10.71-2.43,2.57-5.51,3.81-9.43,3.81s-6.94-1.28-9.33-3.81c-2.4-2.54-3.61-6.15-3.61-10.71v-.84c0-4.57,1.22-8.17,3.62-10.7,2.42-2.57,5.48-3.82,9.33-3.82s7.08,1.25,9.47,3.82c2.37,2.54,3.58,6.14,3.58,10.71M749.58,272.69c2.07-3.7,3.12-8.13,3.12-13.15v-1.41c0-5.03-1.05-9.44-3.12-13.12-2.07-3.67-4.97-6.55-8.62-8.57-3.64-2.01-7.81-3.03-12.42-3.03s-8.76,1.02-12.37,3.03c-3.61,2.02-6.5,4.9-8.57,8.57-2.07,3.67-3.12,8.08-3.12,13.11v1.41c0,5.02,1.05,9.45,3.12,13.15,2.07,3.7,4.96,6.59,8.58,8.58,3.6,1.97,7.76,2.97,12.37,2.97s8.78-1,12.41-2.97c3.66-1.99,6.56-4.88,8.63-8.58"/>
        <path class="cls-1" d="M830.88,241.72c-1.42-2.56-3.34-4.51-5.72-5.8-2.36-1.29-5.09-1.94-8.14-1.94-3.8,0-6.81.78-8.92,2.33-1.92,1.41-3.44,3.16-4.52,5.2h-.39c-1.09-2.1-2.65-3.87-4.64-5.26-2.17-1.51-5.04-2.27-8.54-2.27s-6.1.68-8.11,2.03c-1.82,1.21-3.2,2.62-4.12,4.18l-.08-5.46h-10.93v48.2h11.11v-28.56c0-3.39.81-6,2.4-7.76,1.6-1.77,3.69-2.62,6.37-2.62,2.51,0,4.38.66,5.7,2.03,1.31,1.35,1.97,3.34,1.97,5.9v31.01h11.11v-28.56c0-3.39.81-6,2.41-7.76,1.6-1.77,3.68-2.62,6.36-2.62,2.51,0,4.38.66,5.7,2.03,1.31,1.35,1.97,3.34,1.97,5.9v31.01h11.11v-31.77c0-3.71-.71-6.88-2.12-9.43"/>
        <path class="cls-1" d="M443.26,369.54c0,4.37-1.17,7.76-3.47,10.08-2.3,2.33-5.68,3.51-10.03,3.51s-7.73-1.18-10.03-3.51c-2.3-2.32-3.47-5.71-3.47-10.08v-44.46h-11.66v44.18c0,5.22,1.03,9.72,3.07,13.39,2.05,3.68,4.98,6.54,8.73,8.49,3.71,1.94,8.2,2.92,13.35,2.92s9.56-.98,13.31-2.92c3.78-1.95,6.72-4.82,8.74-8.5,2.01-3.67,3.02-8.17,3.02-13.38v-44.18h-11.57v44.46Z"/>
        <path class="cls-1" d="M501,346.27c-2.76-1.64-5.95-2.47-9.48-2.47-4.47,0-7.92.88-10.24,2.62-2.09,1.57-3.63,3.28-4.57,5.1l-.04-6.97h-10.93v48.2h11.11v-24.33c0-4.76,1.1-8.42,3.27-10.87,2.19-2.46,5.03-3.66,8.68-3.66,3.14,0,5.63.88,7.4,2.62,1.75,1.73,2.64,4.5,2.64,8.23v28h11.11v-28.75c0-4.14-.8-7.75-2.38-10.74-1.59-2.99-3.8-5.34-6.56-6.98"/>
        <path class="cls-1" d="M526.8,325.68c-1.88,0-3.49.64-4.78,1.92-1.3,1.29-1.96,2.96-1.96,4.98s.66,3.69,1.96,4.97c1.29,1.28,2.9,1.92,4.78,1.92s3.57-.65,4.83-1.93c1.27-1.28,1.92-2.95,1.92-4.97s-.64-3.69-1.92-4.97c-1.27-1.27-2.89-1.92-4.83-1.92"/>
        <rect class="cls-1" x="521.2" y="344.55" width="11.11" height="48.2"/>
        <polygon class="cls-1" points="562.81 383.79 562.64 383.79 550.72 344.55 538.95 344.55 554.44 392.13 554.64 392.75 570.81 392.75 586.5 344.55 574.73 344.55 562.81 383.79"/>
        <path class="cls-1" d="M623.7,362.99h-22.83c.56-2.78,1.76-5.02,3.58-6.64,2.04-1.82,4.74-2.74,8.03-2.74s5.97.92,7.98,2.74c1.82,1.65,2.89,3.83,3.25,6.65M624.34,346.32h0c-3.38-2.05-7.33-3.09-11.76-3.09s-8.63,1.04-12.12,3.08c-3.49,2.05-6.25,4.99-8.2,8.74-1.94,3.72-2.93,8.12-2.93,13.08v1.13c0,4.9,1,9.27,2.97,13,1.98,3.74,4.77,6.67,8.29,8.72,3.51,2.04,7.66,3.08,12.34,3.08,4.17,0,7.67-.7,10.39-2.07,2.7-1.36,4.92-3.08,6.6-5.11,1.65-2,2.93-3.93,3.8-5.74l.38-.8-9.3-4.98-.39.85c-.92,2.01-2.24,3.81-3.93,5.35-1.62,1.47-4.1,2.22-7.38,2.22-3.57,0-6.45-1.11-8.82-3.38-2.13-2.04-3.35-4.79-3.63-8.17h34.42v-4.57c0-4.84-.95-9.13-2.83-12.76-1.89-3.64-4.55-6.53-7.92-8.58"/>
        <path class="cls-1" d="M658.76,345.84h0c-1.62.92-2.85,2.32-3.66,4.17v-5.46h-10.93v48.2h11.11v-28.19c0-3.33.85-5.71,2.61-7.27,1.77-1.57,4.09-2.37,6.89-2.37h6.6v-10.55h-6.24c-2.5,0-4.65.49-6.38,1.47"/>
        <path class="cls-1" d="M707.28,365.78h0c-2.72-1.02-5.74-1.82-8.98-2.4l-3.18-.56c-2.31-.42-4.15-1.05-5.47-1.86-1.17-.72-1.72-1.79-1.72-3.36,0-1.45.58-2.53,1.78-3.34,1.32-.88,3.17-1.32,5.53-1.32s4.47.54,6.08,1.6c1.55,1.02,2.58,2.83,3.07,5.39l.18.96,10.46-3.05-.2-.85c-1.02-4.21-3.26-7.6-6.67-10.07-3.38-2.45-7.73-3.69-12.92-3.69s-9.77,1.28-13.07,3.8c-3.38,2.59-5.08,6.27-5.08,10.94,0,3.14.8,5.77,2.38,7.8,1.54,2,3.65,3.58,6.26,4.7,2.52,1.08,5.37,1.93,8.46,2.5l3.09.57c2.84.53,5.02,1.23,6.46,2.06,1.25.73,1.83,1.79,1.83,3.35s-.67,2.85-2.05,3.88c-1.44,1.08-3.58,1.62-6.36,1.62-1.89,0-3.67-.3-5.3-.89-1.57-.57-2.89-1.55-3.93-2.91-1.06-1.38-1.82-3.3-2.28-5.73l-.18-.93-10.41,2.59.13.83c.88,5.56,3.33,9.78,7.28,12.55,3.88,2.73,8.83,4.11,14.68,4.11s10.51-1.36,13.98-4.04c3.55-2.74,5.35-6.63,5.35-11.54,0-3.34-.85-6.07-2.53-8.11-1.63-1.99-3.88-3.53-6.69-4.59"/>
        <path class="cls-1" d="M730.81,325.68c-1.88,0-3.49.64-4.78,1.91-1.31,1.29-1.97,2.96-1.97,4.98s.66,3.69,1.96,4.97c1.29,1.28,2.9,1.92,4.78,1.92s3.57-.65,4.83-1.93c1.27-1.28,1.92-2.95,1.92-4.97s-.64-3.69-1.92-4.97c-1.27-1.27-2.89-1.92-4.83-1.92"/>
        <rect class="cls-1" x="725.21" y="344.55" width="11.11" height="48.2"/>
        <path class="cls-1" d="M767.06,329.22h-11.11v15.33h-12.37v10h12.37v27.98c0,3.05.89,5.55,2.66,7.4,1.76,1.87,4.16,2.81,7.13,2.81h13.24v-9.99h-10.24c-1,0-1.67-.33-1.67-1.92v-26.29h13.37v-10h-13.37v-15.33Z"/>
        <path class="cls-1" d="M821.89,368.98c0,4.76-1.1,8.42-3.27,10.87-2.19,2.46-5,3.66-8.58,3.66-3.25,0-5.71-.86-7.49-2.63-1.75-1.72-2.64-4.49-2.64-8.23v-28.1h-11.11v28.85c0,4.09.8,7.68,2.38,10.68,1.59,3.03,3.81,5.39,6.61,7.04,2.79,1.64,6,2.47,9.53,2.47,2.95,0,5.45-.4,7.41-1.19,1.98-.79,3.6-1.83,4.81-3.07,1.03-1.07,1.85-2.2,2.43-3.36l.04,13.4c0,1.59-.67,1.92-1.68,1.92h-25.88v10.27h28.7c3.02,0,5.45-.95,7.22-2.81,1.77-1.86,2.66-4.35,2.66-7.4v-56.8h-11.11v24.43Z"/>
        <path class="cls-1" d="M761.63,166.79l-21.65-10.3.93-1.71c2.73-5.48,5.11-9.5,7.15-12.06,2.04-2.53,4.22-3.82,6.55-3.82,2.9,0,5.23,1.41,6.98,4.19,1.75,2.78,2.64,6.58,2.64,11.34,0,4.19-.86,8.31-2.59,12.35M693,166.79l-21.66-10.3.94-1.71c2.73-5.48,5.11-9.5,7.15-12.06,2.01-2.53,4.22-3.82,6.55-3.82,2.9,0,5.23,1.41,6.98,4.19,1.75,2.78,2.64,6.58,2.64,11.34,0,4.19-.86,8.31-2.59,12.35M440.1,157.71c-5.32,2.73-10.55,4.12-15.71,4.12-6.55,0-9.83-2.81-9.83-8.36,0-2.04.24-3.92.69-5.71l24.85-7.02v16.97ZM798.3,112.36v51.53h-14.39c-4.63,0-8.23-.82-10.79-2.43.7-3.08,1.06-6.1,1.06-9.08,0-7.52-1.63-13.69-4.87-18.56-3.24-4.84-7.43-7.27-12.59-7.27-4.6,0-8.78,1.93-12.52,5.83-3.76,3.87-7.43,9.38-11.01,16.47-2.9,5.73-5.3,9.68-7.22,11.81-1.92,2.16-4.27,3.22-7.07,3.22h-3.64c-4.6,0-8.2-.82-10.77-2.43.7-3.08,1.06-6.1,1.06-9.08,0-7.52-1.63-13.69-4.87-18.56-3.24-4.84-7.43-7.27-12.59-7.27-4.6,0-8.78,1.93-12.52,5.83-3.77,3.87-7.44,9.38-11.03,16.47-2.88,5.73-5.28,9.68-7.2,11.81-1.92,2.16-4.27,3.22-7.07,3.22h-2.92c-4.84,0-8.56-1.02-11.13-3.03v-48.5h-10.67v51.53h-18.04c-4.46,0-10.46.62-10.89-2.8-.43-3.4-.79-8.83-6.69-13.87-5.9-5.06-13.21-7.59-21.97-7.59-5.54,0-11.44.65-17.68,1.96l29.81-28.98-7.27-9.08-35.69,39.25,4.34,10.2c8.27-1.21,15.71-1.84,22.26-1.84,7.98,0,14.17,1.59,18.63,4.74,4.43,3.15,4.51,5.33,4.51,8.01h-136.37v-42.79h-10.41v9.58l-27.32,7.89c-2.66.77-4.96,2.68-5.92,5.36-1.51,4.19-2.26,8.26-2.26,12.21,0,5.33,1.61,9.6,4.8,12.85,3.21,3.22,7.63,4.84,13.24,4.84,5.15,0,10.96-2.06,17.46-6.18v8.61h150.4l3.29-6.18c4.15,4.12,8.56,6.18,13.24,6.18h21.32l3.98-6.9c4.46,4.59,9.3,6.9,14.53,6.9h2.45c3.84,0,7-.8,9.5-2.36,2.49-1.59,4.96-4.26,7.39-8.06l22.85,10.79c2.33,1.09,5.06.6,6.91-1.21l5.13-5.09.12-.25c4.29,4.12,8.82,6.18,13.6,6.18h3.16c3.81,0,6.98-.8,9.47-2.36,2.52-1.59,4.96-4.26,7.39-8.06l22.85,10.79c2.33,1.09,5.06.6,6.91-1.21l5.16-5.09.1-.25c4.29,4.12,8.83,6.18,13.6,6.18h25.76v-63.88h-10.89Z"/>
        <rect class="cls-1" x="822.45" y="112.35" width="10.54" height="63.88"/>
        <path class="cls-1" d="M411.74,125.78c1.89,0,3.47-.63,4.7-1.88,1.24-1.25,1.87-2.87,1.87-4.84s-.63-3.59-1.87-4.85c-1.24-1.24-2.82-1.87-4.7-1.87s-3.4.63-4.66,1.87c-1.27,1.26-1.91,2.89-1.91,4.85s.64,3.6,1.91,4.84c1.26,1.24,2.83,1.87,4.66,1.87"/>
        <path class="cls-1" d="M429.76,125.78c1.89,0,3.47-.63,4.7-1.88,1.24-1.25,1.87-2.87,1.87-4.84s-.63-3.59-1.87-4.85c-1.24-1.24-2.82-1.87-4.7-1.87s-3.4.63-4.66,1.87c-1.27,1.26-1.91,2.89-1.91,4.85s.64,3.6,1.91,4.84c1.26,1.24,2.83,1.87,4.66,1.87"/>
        <path class="cls-1" d="M698.8,55.2l-21.66-10.32.94-1.69c2.74-5.48,5.11-9.5,7.15-12.06,2.04-2.53,4.22-3.82,6.57-3.82,2.88,0,5.2,1.41,6.96,4.19,1.75,2.78,2.64,6.55,2.64,11.34,0,4.19-.86,8.31-2.59,12.35M618.46,47.93c-.86-.57-1.63-1.22-2.35-1.96-6.02-5.88-10.14-12.93-12.4-21.06,4.13-.74,8.42-1.09,12.88-1.09,7.48,0,13.5.72,18.03,2.18-3.21,9.28-8.59,16.59-16.16,21.93M440.1,46.1c-5.32,2.75-10.55,4.12-15.71,4.12-6.55,0-9.83-2.78-9.83-8.36,0-2.01.24-3.9.7-5.68l24.85-7.05v16.97ZM706.5,22.23c-3.26-4.84-7.46-7.27-12.62-7.27-4.6,0-8.78,1.94-12.52,5.81-3.74,3.89-7.43,9.38-11.01,16.5-2.9,5.73-5.3,9.68-7.22,11.81-1.92,2.13-4.27,3.2-7.07,3.2h-17.46c-3.91,0-7.39-.22-10.43-.72,7.51-6.3,12.88-14.02,16.16-23.14l-1.63-12.23c-8.44-2.83-16.79-4.24-25.06-4.24-7.65,0-15.83,1.29-24.56,3.89-.29.08-.58.15-.86.27.46,7.89,1.75,10.99,1.75,10.99,2.88,9.28,7.39,17.27,13.48,23.99-4.7.79-10.17,1.19-16.4,1.19h-140.54V9.5h-10.41v9.57l-27.24,7.87c-2.71.77-5.04,2.73-6.02,5.43-1.49,4.17-2.23,8.21-2.23,12.16,0,5.33,1.61,9.6,4.8,12.85,3.21,3.22,7.62,4.84,13.24,4.84,5.16,0,10.96-2.06,17.46-6.18v8.61h147.54c11.42,0,21.2-1.98,29.4-5.95,6.81,3.97,14.24,5.95,22.37,5.95h15.71c3.81,0,6.98-.8,9.47-2.36,2.52-1.59,4.97-4.27,7.39-8.06l23.14,10.92c2.16,1.02,4.68.57,6.41-1.12,5.16-5.11,8.85-11.81,9.59-19.15.14-1.36.22-2.73.22-4.09,0-7.52-1.61-13.69-4.84-18.56"/>
        <path class="cls-1" d="M808.87,19.81c-5.85-3.8-11.28-5.7-16.28-5.7-4.21,0-9.13,1.17-14.75,3.52v10.66s9.37-1.7,13.35-1.7c4.3,0,8.38.99,12.25,2.97,3.86,1.98,9.62,5.72,17.27,11.21-1.17.48-3.86,1.66-8.08,3.51-4.22,1.87-6.99,3.01-8.32,3.46-1.32.44-3.55,1.17-6.68,2.18-3.12,1.01-6.01,1.66-8.67,1.93-2.66.28-5.62.42-8.9.42h-40.6V0h-10.54v64.64h50.32c3.67,0,7.15-.24,10.42-.72,3.28-.49,6.78-1.36,10.48-2.61,3.71-1.25,6.68-2.32,8.9-3.21,2.23-.89,5.76-2.47,10.6-4.73,4.84-2.26,10.09-5.72,13.35-7.52v-7.38c-10.23-8.64-18.27-14.86-24.13-18.66"/>
        <path class="cls-1" d="M816.76,79.27c1.89,0,3.47-.63,4.7-1.88,1.24-1.25,1.87-2.87,1.87-4.84s-.63-3.59-1.87-4.85c-1.24-1.24-2.82-1.87-4.7-1.87s-3.4.63-4.66,1.87c-1.27,1.26-1.91,2.89-1.91,4.85s.64,3.6,1.91,4.84c1.26,1.24,2.83,1.87,4.66,1.87"/>
        <path class="cls-1" d="M411.74,13.43c1.89,0,3.47-.63,4.7-1.88,1.24-1.25,1.87-2.87,1.87-4.84s-.63-3.59-1.87-4.85C415.21.63,413.63,0,411.74,0s-3.4.63-4.66,1.87c-1.27,1.26-1.91,2.89-1.91,4.85s.64,3.6,1.91,4.84c1.26,1.24,2.83,1.87,4.66,1.87"/>
        <path class="cls-1" d="M429.76,13.43c1.89,0,3.47-.63,4.7-1.88,1.24-1.25,1.87-2.87,1.87-4.84s-.63-3.59-1.87-4.85C433.23.63,431.65,0,429.76,0s-3.4.63-4.66,1.87c-1.27,1.26-1.91,2.89-1.91,4.85s.64,3.6,1.91,4.84c1.26,1.24,2.83,1.87,4.66,1.87"/>
      </g>
    </g>
  </g>
</svg>