<?xml version="1.0" encoding="UTF-8"?><svg id="Layer_2" xmlns="http://www.w3.org/2000/svg" viewBox="0 0 106.65 61.04"><defs><style>.cls-1{fill:#606060;stroke-width:0px;}</style></defs><g id="Logos"><path class="cls-1" d="M4.72,55.8c.4-.35.75-.67,1.05-.97.31-.3.57-.6.77-.91.21-.3.37-.62.47-.95.11-.33.16-.69.16-1.06v-.03c0-.43-.08-.84-.25-1.21-.16-.37-.4-.7-.69-.97-.3-.27-.65-.48-1.05-.63-.4-.15-.84-.22-1.29-.22-.43,0-.83.05-1.19.14-.36.1-.69.24-.99.43-.29.19-.56.42-.8.69-.23.26-.46.55-.67.87l-.25.36,1.48,1.07.26-.37c.34-.48.68-.83,1-1.06.29-.2.63-.31,1.08-.31.19,0,.37.03.55.1.18.06.32.15.43.26.12.11.22.24.29.41.07.15.11.32.11.53,0,.18-.03.35-.08.52-.05.17-.14.35-.27.54-.13.19-.31.41-.53.64-.23.24-.52.52-.86.82L0,57.56v1.45h7.27v-1.83H3.18l1.55-1.38Z"/><path class="cls-1" d="M15.88,50.39c-.37-.48-.83-.86-1.36-1.14-.54-.28-1.15-.42-1.79-.42-.65,0-1.26.14-1.81.43-.53.28-.99.66-1.36,1.14-.37.47-.66,1.03-.86,1.65-.2.62-.29,1.27-.29,1.95v.03c0,.68.09,1.33.29,1.95.19.61.47,1.16.84,1.63.37.48.83.86,1.36,1.14.54.28,1.15.42,1.8.42h0c.64,0,1.25-.14,1.79-.43.53-.28.99-.67,1.36-1.14.37-.48.65-1.02.85-1.64.2-.61.29-1.27.29-1.95v-.02c0-.67-.1-1.32-.29-1.94-.19-.62-.47-1.17-.84-1.64ZM15.04,54.02c0,.46-.06.89-.17,1.31-.11.42-.28.77-.48,1.06-.21.3-.45.52-.73.69-.27.16-.57.24-.92.24-.35,0-.65-.08-.93-.25-.29-.18-.54-.41-.75-.71-.21-.3-.38-.66-.49-1.07-.12-.42-.18-.85-.18-1.31v-.02c0-.47.06-.9.18-1.31.12-.41.28-.76.49-1.06.21-.3.45-.52.73-.69.27-.16.57-.24.92-.24.35,0,.65.08.92.25.29.18.53.41.74.71.21.3.38.66.5,1.07.12.41.18.85.18,1.31v.03Z"/><path class="cls-1" d="M24.46,53.71c-.32-.24-.69-.43-1.09-.55-.13-.04-.25-.07-.38-.11l2.42-2.69v-1.38h-6.71v1.83h3.9l-2.38,2.69.4,1.17h.91c.34,0,.65.04.92.1.27.07.5.16.67.28.17.12.3.24.38.4.08.14.13.31.13.53v.03c0,.21-.04.38-.11.54-.08.16-.18.3-.32.42-.13.11-.28.2-.48.27-.19.06-.4.1-.63.1-.5,0-.92-.1-1.28-.3-.37-.2-.72-.49-1.05-.89l-.3-.37-1.41,1.26.26.33c.41.54.94.97,1.55,1.3.64.34,1.38.49,2.2.49.47,0,.92-.07,1.35-.23.42-.15.79-.37,1.1-.64.32-.28.57-.63.76-1.02.19-.4.28-.85.28-1.31v-.03c0-.47-.09-.91-.3-1.3-.19-.37-.46-.68-.78-.92Z"/><path class="cls-1" d="M34.04,50.39c-.37-.48-.83-.86-1.36-1.14-.54-.28-1.15-.42-1.79-.42-.65,0-1.26.14-1.81.43-.53.28-.99.66-1.36,1.14-.37.48-.66,1.03-.86,1.65-.2.62-.3,1.27-.3,1.95v.03c0,.68.1,1.33.29,1.94.19.61.47,1.16.84,1.63.37.48.83.86,1.36,1.14.54.28,1.15.42,1.8.42h0c.65,0,1.25-.14,1.79-.43.53-.28.99-.67,1.36-1.14.37-.48.65-1.02.85-1.64.2-.61.3-1.27.3-1.95v-.02c0-.67-.1-1.33-.29-1.94-.19-.61-.47-1.16-.84-1.64ZM33.2,54.02c0,.46-.06.89-.17,1.31-.11.42-.28.77-.48,1.06-.21.3-.45.52-.73.7-.27.16-.57.24-.92.24-.35,0-.65-.08-.93-.25-.29-.18-.54-.41-.75-.71-.21-.3-.38-.66-.5-1.07-.12-.42-.18-.85-.18-1.31v-.02c0-.47.06-.9.18-1.31.12-.41.28-.76.49-1.06.21-.3.45-.52.73-.69.27-.16.57-.24.92-.24.35,0,.64.08.92.25.29.18.53.41.74.71.21.3.38.66.5,1.08.12.41.18.85.18,1.31v.03Z"/><path class="cls-1" d="M45.27,54.41c0,.98-.41,1.49-1.44,1.49h-2.97c-1.03,0-1.37-.49-1.37-1.49v-3.03h-1.97v3.08c0,2.02,1.3,3.25,3.46,3.25h2.86c2.13-.02,3.41-1.26,3.41-3.25v-3.08h-1.97v3.03Z"/><path class="cls-1" d="M66.9,54.41c0,1.44-.25,1.49-.82,1.49h-1.33v-4.51h-2.01v4.51h-2.34v-4.51h-1.93v4.51h-1.28c-.98,0-1.45-.43-1.45-1.09v-3.42h-1.99v3.37c0,.69-.45,1.13-1.26,1.14-1.32-.01-1.76-.51-1.76-1.47v-6.95h-1.97v7c0,1.83,1.08,3.01,3.15,3.21v.03h.57s.02,0,.03,0,.02,0,.03,0h0c.92-.01,1.72-.26,2.28-.77.62.49,1.41.77,2.38.77h8.93c1.71,0,2.73-.95,2.73-2.72v-3.61h-1.96v3.03Z"/><path class="cls-1" d="M63.84,49.45c0,.62.5,1.12,1.12,1.12.62,0,1.12-.5,1.12-1.12,0-.62-.5-1.12-1.12-1.12-.62,0-1.12.5-1.12,1.12Z"/><path class="cls-1" d="M62.17,50.57c.62,0,1.12-.5,1.12-1.12,0-.62-.5-1.12-1.12-1.12-.62,0-1.12.5-1.12,1.12,0,.62.5,1.12,1.12,1.12Z"/><path class="cls-1" d="M63.53,48.13c.62,0,1.12-.5,1.12-1.12,0-.62-.5-1.12-1.12-1.12-.62,0-1.12.5-1.12,1.12,0,.62.5,1.12,1.12,1.12Z"/><path class="cls-1" d="M54.85,58.8c-.62,0-1.12.5-1.12,1.12s.5,1.12,1.12,1.12c.62,0,1.12-.5,1.12-1.12,0-.62-.5-1.12-1.12-1.12Z"/><path class="cls-1" d="M42.54,58.8c-.62,0-1.12.5-1.12,1.12,0,.62.5,1.12,1.12,1.12.62,0,1.12-.5,1.12-1.12,0-.62-.5-1.12-1.12-1.12Z"/><path class="cls-1" d="M87.5,54.14c0,1.17-.54,1.75-1.65,1.78-1.04-.03-1.63-.53-1.63-1.38v-3.7h-1.83v3.65c0,.91-.55,1.44-1.5,1.44h-3.02v-5.08h-3.37c-1.97,0-3.29.58-3.29,3.41,0,2.26,1.14,3.46,3.29,3.46h6.84v-.02c.85-.08,1.55-.4,2.04-.94.52.54,1.27.87,2.2.94v.02h.2s.06,0,.09,0c.02,0,.05,0,.07,0h.45v-.04c1.84-.23,2.95-1.51,2.95-3.46v-3.37h-1.84v3.3ZM76.02,52.52v3.4h-1.48c-1.26,0-1.45-1.05-1.45-1.67,0-1.19.45-1.72,1.45-1.72h1.48Z"/><path class="cls-1" d="M74.68,49.74h0c.54,0,.98-.44.98-.98,0-.54-.44-.98-.98-.98-.54,0-.98.44-.98.98s.44.98.98.98Z"/><path class="cls-1" d="M76.91,49.74h0c.54,0,.98-.44.98-.98,0-.54-.44-.98-.98-.98-.54,0-.98.44-.98.98s.44.98.98.98Z"/><path class="cls-1" d="M85.91,58.75c-.54,0-.98.44-.98.98s.44.98.98.98h0c.54,0,.98-.44.98-.98,0-.54-.44-.98-.98-.98Z"/><path class="cls-1" d="M88.15,58.75c-.54,0-.98.44-.98.98s.44.98.98.98h0c.54,0,.98-.44.98-.98,0-.54-.44-.98-.98-.98Z"/><path class="cls-1" d="M83.28,49.74h0c.54,0,.98-.44.98-.98,0-.54-.44-.98-.98-.98-.54,0-.98.44-.98.98s.44.98.98.98Z"/><path class="cls-1" d="M105.66,51.86c-.65-.66-1.38-1.01-2.18-1.04h-.42c-.96.04-1.78.39-2.43,1.04-.65.66-.99,1.47-.99,2.41,0,.63.12,1.18.35,1.66h-1.39s-2.7,0-2.7,0v-2.13c0-.92-.04-1.26-.29-1.73-.43-.83-1.21-1.31-2.19-1.37h0s-.21,0-.21,0h-2.09v1.7h1.88c.73,0,1.08.23,1.08,2.15v1.38h-3.53v1.78h13.44c.09,0,.2-.02.35-.06,1.53-.51,2.31-1.63,2.31-3.33,0-.97-.33-1.8-.99-2.46ZM101.9,55.44c-.34-.33-.5-.71-.5-1.18,0-.39.18-.75.54-1.11.37-.36.76-.53,1.2-.53s.84.17,1.2.53c.36.36.54.72.54,1.11,0,.46-.16.84-.51,1.18-.27.28-.68.44-1.21.48-.57-.04-1-.2-1.27-.48Z"/><path class="cls-1" d="M76.52,14.97c-.28,0-.56.01-.84.04.3.79.51,1.63.62,2.49.07,0,.14,0,.21,0,3.46,0,6.27,2.82,6.28,6.28,0,.96-.58,2.24-1.62,3.51-.45.56-.9,1.01-1.2,1.3-.13.13-.26.25-.39.36-.07.06-.11.09-.13.11l-.25.21v.03c-.63.67-1.03,1.6-1.06,2.51v9.19s2.53,0,2.53,0v-9.17h0s0-.04,0-.04c0-.17.23-.65.35-.76l.05-.04c.25-.21,1.15-1,2.06-2.13,1.45-1.82,2.17-3.48,2.18-5.1,0-4.86-3.95-8.81-8.81-8.81Z"/><path class="cls-1" d="M74.88,31.82c-.03-1.02-.52-2.07-1.29-2.74l-.19-.17h0c-.27-.24-.95-.87-1.6-1.7-.83.77-1.48,1.27-1.61,1.36-.04.06-.1.18-.12.25v.27c.89,1.06,1.73,1.78,1.89,1.92l.04.03c.13.11.36.59.36.75v9.22s2.53,0,2.53,0v-9.17s0-.02,0-.02Z"/><path class="cls-1" d="M37.85,27.9c-.08.09-.15.18-.23.27v12.83s2.6,0,2.6,0v-17.84c-.25,1.52-1.03,3.08-2.38,4.73Z"/><path class="cls-1" d="M43.5,27.68c0-2.05.64-3.95,1.73-5.52v-7.54c-.02-.46.44-1.44.79-1.73l.03-.02c.17-.15.76-.69,1.37-1.53.93-1.3,1.41-2.63,1.41-3.94,0-4.09-3.33-7.41-7.41-7.41-4.08,0-7.41,3.32-7.41,7.41,0,1.31.48,2.63,1.42,3.93.63.87,1.25,1.43,1.37,1.53l.02.02c.36.29.81,1.27.79,1.73v.77c1.39,1.46,2.32,3.35,2.6,5.45v-6.22c-.03-1.36-.7-2.82-1.72-3.73,0,0-.02-.02-.06-.05l-.02-.02c-.39-.34-1.83-1.92-1.81-3.43,0-2.65,2.16-4.8,4.81-4.81,2.65,0,4.81,2.16,4.81,4.81,0,.98-.58,1.93-.92,2.41-.26.36-.51.64-.68.82-.09.09-.16.16-.22.21l-.06.05s0,0-.01.01c-1.01.9-1.68,2.36-1.71,3.72v26.37s2.6,0,2.6,0v-8.4c-1.16-1.73-1.72-3.34-1.73-4.92Z"/><path class="cls-1" d="M65.26,8.43c-5.52,0-10.06,4.29-10.47,9.71.88.15,1.72.42,2.5.79,0-2.13.83-4.13,2.33-5.63,1.51-1.51,3.51-2.33,5.64-2.33s4.13.83,5.64,2.33c1.5,1.51,2.33,3.51,2.33,5.64.01,1.31-.86,3.04-2.4,4.74-.66.73-1.32,1.34-1.76,1.72-.25.22-.45.38-.58.48-.1.08-.17.13-.19.15l-.28.21v.03c-.67.65-1.09,1.58-1.12,2.5v12.23s2.53,0,2.53,0v-12.21s0-.01,0-.01v-.02c0-.16.22-.58.33-.67l.04-.03c.15-.11,1.52-1.15,2.91-2.7,2.04-2.29,3.03-4.39,3.05-6.43,0-5.79-4.71-10.5-10.5-10.5Z"/><path class="cls-1" d="M63.62,28.78c-.02-.79-.34-1.59-.85-2.21.04.37.07.74.07,1.12,0,1.59-.58,3.21-1.75,4.95v8.38s2.53,0,2.53,0v-12.23Z"/><path class="cls-1" d="M30.5,12.96c-5.06,0-9.18,4.12-9.18,9.19.01,1.69.77,3.44,2.32,5.35.97,1.19,1.93,2.01,2.19,2.23l.05.04c.14.11.37.6.37.77v10.47s2.56,0,2.56,0v-10.45c-.03-1.04-.54-2.11-1.33-2.79l-.09-.08h0s-.04-.03-.06-.05c-.35-.3-1.25-1.13-2.05-2.2-.91-1.2-1.4-2.37-1.4-3.29,0-3.65,2.98-6.62,6.62-6.63,3.64,0,6.61,2.98,6.62,6.63,0,1.02-.62,2.38-1.74,3.73-.48.59-.97,1.07-1.29,1.38-.14.13-.28.26-.42.38-.09.08-.13.11-.14.12h-.02c-.79.69-1.3,1.76-1.33,2.8v10.45s2.56,0,2.56,0v-10.43h0s0-.04,0-.04c0-.18.23-.66.36-.77l.05-.04c.19-.16,1.19-1.01,2.2-2.24,1.55-1.9,2.31-3.65,2.32-5.35,0-5.06-4.12-9.18-9.17-9.18Z"/><path class="cls-1" d="M53.17,18.65c-4.98,0-9.03,4.05-9.03,9.03,0,1.51.59,3.08,1.77,4.78.74,1.06,1.48,1.8,1.68,2l.04.04c.2.17.54.95.52,1.22v5.29s2.81,0,2.81,0v-5.25s0-.02,0-.02c-.03-1.19-.57-2.45-1.41-3.29l-.13-.13c-.22-.23-.88-.93-1.47-1.85-.66-1.02-1.02-2.01-1.01-2.8,0-3.42,2.8-6.22,6.22-6.22,3.42,0,6.21,2.8,6.22,6.23,0,.87-.45,2.02-1.26,3.17-.35.5-.7.91-.93,1.17-.15.17-.25.27-.3.32-.05.05-.08.08-.09.09,0,0-.01.01-.02.02h0c-.84.84-1.38,2.1-1.41,3.29v5.27s2.81,0,2.81,0v-5.29c-.02-.26.32-1.05.52-1.22l.03-.03c.09-.08.89-.86,1.7-2.01,1.18-1.7,1.76-3.27,1.77-4.79,0-4.98-4.05-9.03-9.03-9.03Z"/></g></svg>