<svg version="1.2" xmlns="http://www.w3.org/2000/svg" viewBox="632.0000000000001 190 383.9999999999999 597" width="384" height="597">
	<style>
		.s0 { fill: #ffffff } 
		.s1 { fill: #d33200 } 
	</style>
	<g id="Layer 1">
		<g id="&lt;Group&gt;">
			<g id="&lt;Group&gt;">
			</g>
		</g>
		<g id="&lt;Group&gt;">
			<g id="&lt;Group&gt;">
				<path id="&lt;Path&gt;" class="s0" d="m829.98 349.51l-17.92-10.71c-0.17 1.32 1.04 2.07 1.96 2.76 5.07 4.26 21.6 9.28 13.54 17.28q-0.33 0.35-0.75 0.69l-17.28-12.55c-0.23 1.61 0.63 2.24 1.55 3.16 3.46 3.58 12.96 7.15 14.46 11.7 0.69 1.9-0.11 4.03-3.45 6.33 0 0.06 0 0.06-0.06 0.12-0.06 0-0.06 0.06-0.12 0.06l-16.13-11.29c-0.63 0.63 1.67 2.7 2.25 3.17 2.25 1.95 9.79 5.93 10.94 7.89 0.47 0.8 0.64 1.72 0.52 2.59-0.46 0.4-0.86 0.81-1.32 1.21 0.46-0.35 0.92-0.75 1.32-1.15-0.23 2.19-2.01 4.37-4.26 5.93-3.86 2.53-9.1 3.11-10.08-2.02 1.38-0.17 1.9 1.21 3.11 1.56 1.73 0.57 5.18 0.69 4.38-1.79-0.4-1.26-10.08-4.78-11.29-7.31l1.27 4.38-1.73 0.17c-2.08 6.05-9.22 11.98-16.07 10.37-1.44-0.29-2.08-1.73-3.57-1.67l-12.56 0.11h-5.01c0.63-0.57 1.26-1.21 1.84-1.78q1.12-1.23 2.42-2.37l2.01-1.72v-1.1l2.08-1.44c8.06-5.64 13.54-13.42 18.78-20.97 3.34-4.78 6.51-9.27 10.42-13.36 0.69-0.81 1.44-1.5 2.25-2.25l2.3-2.13 25.58 11.98c0.06 0.06 0.06 0.06 0.11 0.12 0.18 1.27-0.23 2.65-1.49 4.03z"/>
				<path id="&lt;Path&gt;" class="s0" d="m831.36 345.36l-25.58-11.98q0.36-0.17 0.64-0.34c0.92-0.52 1.15-0.64 1.78-0.64 0.46 0 1.33 0.12 2.83 0.64 4.26 1.55 8.41 3.57 12.21 6.04q0.93 0.52 1.78 1.21c0.87 0.58 1.67 1.16 2.48 1.79q0.95 0.68 1.73 1.44c0.75 0.52 1.5 1.15 2.13 1.84z"/>
				<path id="&lt;Path&gt;" class="s0" d="m819.49 370.71v0.06c-0.4 0.4-0.86 0.8-1.32 1.15 0.46-0.4 0.86-0.81 1.32-1.21z"/>
				<path id="&lt;Path&gt;" class="s0" d="m831.47 345.42v0.06c-0.05-0.06-0.05-0.06-0.11-0.12z"/>
				<path id="&lt;Path&gt;" class="s0" d="m732.16 393.45q-1.56 2.08-2.6 4.43h-0.05c-0.41 0.81-0.75 1.61-1.1 2.48-1.15 3.17-1.84 6.28-2.01 9.44-0.12 0.87-0.12 1.56-0.12 2.08v3.97c-4.72 4.44-8.76 10.03-11.29 15.9l11.29-12.9v50.57c-3.74 0.93-7.43 1.21-10.48 0.18-1.62-0.52-14.06-10.66-14.98-12.27-0.63-0.98-1.21-2.08-1.38-3.17-0.52-16.07-3-27.13 3.74-38.19 1.96-3.29 4.67-6.51 8.53-9.91 6.16-5.41 13.19-9.16 20.45-12.61z"/>
				<path id="&lt;Path&gt;" class="s0" d="m836.01 356.29c0-3.57-0.51-6.51 0-10.08 0.12-0.86-0.63-1.84 0.93-1.61 5.06 2.36 3.28 9.39-0.93 11.69z"/>
				<path id="&lt;Path&gt;" class="s0" d="m711.71 406.06c6.16-5.41 13.19-9.16 20.45-12.61q-1.56 2.08-2.6 4.43h-0.05c-2.37 0.98-4.67 2.02-6.86 3.23-4.84 2.53-8.47 5.41-11.52 9.1-0.58 1.44-1.78 4.15-5.07 5.01l-2.88 0.75c1.96-3.29 4.67-6.51 8.53-9.91z"/>
				<path id="&lt;Path&gt;" class="s0" d="m799.56 331.31c-0.92 0.86-1.84 1.73-2.65 2.65-10.13 10.6-16.13 25-28.16 33.41-9.91-6.45-19.76-7.32-31-3.86-0.11 1.21 1.39 0.52 2.14 0.4 9.33-0.86 17.28-0.11 24.3 6.74v1.33c-1.9 1.61-3.45 3.51-5.3 5.12q-1.81 1.63-3.8 3c-0.63 0-1.09 0.11-1.67 0.23-6.91 1.04-13.19 4.32-17.97 9.22q0.01 0-0.06 0c-5.3 1.95-10.6 3.85-15.49 6.5-4.96 2.6-9.51 5.94-13.37 10.72-0.86 0.98-0.86 2.59-1.95 2.88-3.23-16.42 2.53-30.82 14.28-41.94l-3.17 0.93c-1.26-8.59-3.11-17.46-1.15-26.1q0.43-1.97 1.21-3.86c3.8-9.91 12.96-17.34 23.27-19.81 0.64-0.18 2.13-0.81 2.02 0.4-6.97 2.59-13.14 8.35-16.76 15.21q1.72-0.77 3.45-1.62l0.06-0.05h0.06c6.85-8.41 16.99-14.29 27.59-15.1q2.76-0.27 5.53 0.06c0.86 0.06 1.67 0.17 2.53 0.35h0.06c0.63 0.11 1.33 0.23 1.96 0.4q3.11 0.71 6.22 2.19c4.15 2.02 6.51 4.72 8.87 7.89-2.07-1.04-3.92-2.36-5.53-3.57 1.61 1.27 3.46 2.59 5.53 3.57l0.06 0.06 0.06 0.06h0.05c0.41 0.11 0.7 0.34 1.16 0.51q0.26 0.08 0.51 0.24l-1.09-3.75c6.22 0.98 12.67 2.54 18.2 5.59z"/>
				<path id="&lt;Path&gt;" class="s0" d="m780.61 328.6c-2.07-0.98-3.92-2.3-5.53-3.57 1.61 1.21 3.46 2.53 5.53 3.57z"/>
				<path id="&lt;Path&gt;" class="s0" d="m780.67 328.6v0.06l-0.06-0.06z"/>
				<path id="&lt;Path&gt;" class="s0" d="m780.61 328.6c-2.07-0.98-3.92-2.3-5.53-3.57 1.61 1.21 3.46 2.53 5.53 3.57z"/>
				<path id="&lt;Path&gt;" class="s0" d="m780.67 328.6v0.06l-0.06-0.06z"/>
				<path id="&lt;Path&gt;" class="s0" d="m780.61 328.6c-2.07-0.98-3.92-2.3-5.53-3.57 1.61 1.21 3.46 2.53 5.53 3.57z"/>
				<path id="&lt;Path&gt;" class="s0" d="m819.49 370.71v0.06c-0.4 0.4-0.86 0.8-1.32 1.15 0.46-0.4 0.86-0.81 1.32-1.21z"/>
				<path id="&lt;Path&gt;" class="s0" d="m831.47 345.42v0.06c-0.05-0.06-0.05-0.06-0.11-0.12z"/>
				<path id="&lt;Path&gt;" class="s0" d="m836.01 356.29c0-3.57-0.51-6.51 0-10.08 0.12-0.86-0.63-1.84 0.93-1.61 5.06 2.36 3.28 9.39-0.93 11.69z"/>
				<path id="&lt;Path&gt;" class="s0" d="m867.18 317.58v13.48q-0.61-0.44-1.21-1.15c-0.29-0.4-0.58-0.81-0.87-1.33-0.75-1.32-1.32-3.05-1.55-5.35-0.17-1.27-0.12-2.42 0.11-3.4q-0.26-0.42-0.52-1.1c-0.11-0.17-0.17-0.4-0.28-0.63 0.92-0.46 1.96-0.86 2.99-1.21z"/>
				<path id="&lt;Path&gt;" class="s0" d="m867 333.42c-0.05 0-0.05 0-0.05-0.05q0.24-0.09 0.57-0.18c0-0.05 0-0.17-0.05-0.23 3.16 0.64 0.28 0.69-0.47 0.46z"/>
				<path id="&lt;Path&gt;" class="s0" d="m888.67 311.44c-0.92 1.32-2.59 2.18-4.66 2.88-0.75-0.35-1.56-0.58-2.31-0.81z"/>
				<path id="&lt;Path&gt;" class="s0" d="m836.01 346.21c0.12-0.86-0.63-1.84 0.93-1.61 5.06 2.36 3.28 9.39-0.93 11.69 0-3.57-0.51-6.51 0-10.08z"/>
				<path id="&lt;Path&gt;" class="s0" d="m863.14 318.73c-0.11-0.17-0.17-0.4-0.28-0.63 0.92-0.46 1.96-0.86 2.99-1.21l1.33 0.69v13.48q-0.61-0.44-1.21-1.15c-0.29-0.4-0.58-0.81-0.87-1.33-0.75-1.32-1.32-3.05-1.55-5.35-0.17-1.27-0.12-2.42 0.11-3.4q-0.26-0.42-0.52-1.1z"/>
				<path id="&lt;Path&gt;" class="s0" d="m866.95 333.37q0.24-0.09 0.57-0.18c0-0.05 0-0.17-0.05-0.23 3.16 0.64 0.28 0.69-0.47 0.46-0.05 0-0.05 0-0.05-0.05z"/>
				<path id="&lt;Path&gt;" class="s0" d="m780.67 328.6v0.06l-0.06-0.06z"/>
				<path id="&lt;Path&gt;" class="s0" d="m888.67 311.44c-0.92 1.32-2.59 2.18-4.66 2.88-0.75-0.35-1.56-0.58-2.31-0.81z"/>
				<path id="&lt;Compound Path&gt;" class="s0" d="m958.89 442.54c-0.23-7.95 0.41-15.15-0.69-23.39-3.68-26.21-29.15-49.94-41.07-72.75-3.69-7.2-5.99-15.78-9.91-23.27 0-0.06-0.05-0.12-0.05-0.17-2.14-4.04-9.57-16.59-13.31-17.69-3.11-1.03-16.71 2.25-20.57 3.52-1.09 0.34-2.01 0.63-2.82 1.03-2.88 1.38-3.8 3.29-1.61 7.49l12.84-3.8 6.97-2.07c-0.92 1.32-2.59 2.18-4.66 2.88-6.16 2.07-15.38 2.41-14.75 8.29 0.87 7.66 4.96 2.82 8.82 1.38 4.26-1.61 8.92-2.47 13.19-4.09 1.21 1.04-3.4 2.71-3.92 2.94-8.87 3.57-19.64 2.07-11.35 15.21l3.63-3.46 14.23-5.53c0.23 1.56 0.06 1.33-0.81 2.13-3.05 2.71-14.28 4.61-14.8 7.95-0.35 2.25 1.84 6.68 3.57 8.12 2.07 1.73 8.7 2.88 9.45-0.69-3.06 0.35-6.28 1.56-6.51-2.59 1.84-0.06 4.32-0.23 5.99-0.86 1.67-0.58 2.65-2.31 4.43-2.36l-1.32 2.24 3.28 0.98c-2.88 8.76 4.26 17.63 13.6 14.98-5.88 5.76-13.25 3.28-17-3.52-0.74-1.26-0.98-4.37-2.13-4.95-2.36-1.21-0.11 5.36-1.61 5.18-0.69-4.89-3.46-3.34-6.57-4.14-5.99-1.67-7.54-9.16-11.46-13.31-3.11 0.75-6.28 0.17-6.11 4.44-6.62-6.46-16.53-5.13-24.71-2.6 0.23-5.58 8.53-2.47 11.75-4.83-2.07-1.62-4.43-3.35-5.99-5.48-2.88 1.16-5.87 1.73-9.1 1.73-15.03 0-28.28-13.19-34.85-21.08-1.21-1.44-2.25-2.82-3.17-4.21-0.11-0.17-0.23-0.4-0.34-0.57-2.31-3.69-3.69-7.2-4.5-10.77-1.21 2.18-2.65 4.2-4.49 5.93-6.74 6.22-16.36 8.24-24.48 11.86 2.3 0.52 4.49 1.21 6.68 2.19-1.09 0.35-2.13 0.69-3.22 1.1q1.9 0.43 3.45 1.04c3.86 1.55 7.26 5.29 11.29 6.97 2.83 1.2 13.77 4.55 16.53 4.95 1.39 0.23 2.42-0.69 3.92-1.38 1.73-0.87 4.03-1.5 8.35 0.11 8.76 3.17 16.82 8.18 23.33 14.4 1.79 1.73 4.27 1.21 4.84 4.9 0.64 4.09-2.59 11.86-5.53 14.57-1.73 1.5-3.22 0.92-4.03 1.5-0.46 0.29-3.92 7.6-5.36 9.27-1.03 1.16-6.33 5.99-7.49 6.86-0.46 0.34-0.92 0.57-1.38 0.81h8.87l1.5-1.91h59.97c0.28-5.18 0.17-10.25-1.1-13.42-2.88-6.91-9.39-9.39-15.09-12.9-0.63-0.46-2.02-1.38-0.12-1.21 10.6 4.03 21.43 8.87 21.2 22.06 3.92-0.52 10.14-3.86 11.06 1.96-4.38-0.46-8.87 0.75-12.21 3.51h3.23c5.01 0 9.9 1.1 14.4 3.11-0.58-4.95-1.79-9.73-4.15-14.4 3.86 1.62 6.85-0.92 10.42-1.95-0.05 2.01-2.24 2.65-3.11 4.43-1.32 2.77 0.35 9.39 1.27 14.4 1.56 1.04 2.94 2.08 4.09 3.17l1.73-6.57 7.03 18.84c0.17 0.35 0.86 2.19 0.86 2.19v0.11c1.27 3.58 1.96 7.32 1.96 11.12v25.98c4.09 3 13.94 8.7 13.19 12.27-0.69 2.99-4.09 2.71-6.45 2.48-2.42-0.23-4.67-1.04-6.74-2.13v2.18l-1.56 1.5c0.87 0.52 1.73 1.04 2.65 1.38 5.3 2.14 19.7 3.92 24.89 2.14 7.43-2.54 3.86-10.49 3.74-15.73zm-5.35-8.93c-1.67 1.61-5.53 0.75-6.17-1.61 0.46-7.49 1.15-14.23-0.63-21.6-2.25-9.62-7.55-18.32-11.23-27.42 7.6 10.71 15.78 23.79 18.03 36.92 0.46 2.65 1.67 12.04 0 13.71z"/>
				<path id="&lt;Path&gt;" class="s0" d="m867 333.42c-0.05 0-0.05 0-0.05-0.05q0.01 0-0.06 0c-3.28-1.21-1.56-3.23-2.65-5.71-0.4-0.92-2.42-2.07-3.23-3.28-2.07-3.17-0.57-5.01 1.85-6.28 0.92-0.46 1.96-0.86 2.99-1.21l1.33 0.69v15.32c0.11 0 0.17 0.06 0.29 0.06 3.16 0.64 0.28 0.69-0.47 0.46z"/>
				<path id="&lt;Path&gt;" class="s0" d="m871.84 264.13c-1.03 2.99-2.13 6.16-2.99 9.56q-0.61 2.42-1.04 5.01c-0.63 3.8-1.15 7.66-2.25 11.29-1.26 4.21-4.26 10.31-7.83 15.96-3.4 5.41-7.32 10.42-10.71 12.9-12.85 9.39-28.69-4.9-36.75-14.57q-0.35-0.44-0.7-0.87c-5.93-7.49-6.33-13.65-6.27-23.38-1.1-1.21-2.71-2.54-4.27-3.86-2.07-1.85-4.03-3.81-4.84-5.88-0.92-2.48-0.23-4.67-0.63-7.14q-0.01-0.18-0.11-0.35c-0.7-3.34-3.4-4.95-2.02-9.27 1.5-4.96 6.45-1.85 8.75 0.69-0.34-7.83-1.2-14.75-0.17-21.2 0.98-5.76 3.46-11.12 9.28-16.24 20.16-17.63 54.2-7.43 64.22 16.41q0.35 0.88 0.69 1.67v0.06c4.15 11.29 0.98 19.7-2.36 29.21z"/>
				<path id="&lt;Path&gt;" class="s0" d="m871.84 264.13c-1.03 2.99-2.13 6.16-2.99 9.56q-0.61 2.42-1.04 5.01c-0.63 3.8-1.15 7.66-2.25 11.29-1.26 4.21-4.26 10.31-7.83 15.96-3.4 5.41-7.32 10.42-10.71 12.9-12.85 9.39-28.69-4.9-36.75-14.57q-0.35-0.44-0.7-0.87c-5.93-7.49-6.33-13.65-6.27-23.38-1.1-1.21-2.71-2.54-4.27-3.86-2.07-1.85-4.03-3.81-4.84-5.88-0.92-2.48-0.23-4.67-0.63-7.14q-0.01-0.18-0.11-0.35c-0.7-3.34-3.4-4.95-2.02-9.27 1.5-4.96 6.45-1.85 8.75 0.69-0.34-7.83-1.2-14.75-0.17-21.2 0.98-5.76 3.46-11.12 9.28-16.24 20.16-17.63 54.2-7.43 64.22 16.41q0.35 0.88 0.69 1.67v0.06c4.15 11.29 0.98 19.7-2.36 29.21z"/>
				<path id="&lt;Path&gt;" class="s0" d="m871.84 264.13c-1.03 2.99-2.13 6.16-2.99 9.56q-0.61 2.42-1.04 5.01c-0.63 3.8-1.15 7.66-2.25 11.29-1.26 4.21-4.26 10.31-7.83 15.96-3.4 5.41-7.32 10.42-10.71 12.9-12.85 9.39-28.69-4.9-36.75-14.57q-0.35-0.44-0.7-0.87c-5.93-7.49-6.33-13.65-6.27-23.38-1.1-1.21-2.71-2.54-4.27-3.86-2.07-1.85-4.03-3.81-4.84-5.88-0.92-2.48-0.23-4.67-0.63-7.14q-0.01-0.18-0.11-0.35c-0.7-3.34-3.4-4.95-2.02-9.27 1.5-4.96 6.45-1.85 8.75 0.69-0.34-7.83-1.2-14.75-0.17-21.2 0.98-5.76 3.46-11.12 9.28-16.24 20.16-17.63 54.2-7.43 64.22 16.41q0.35 0.88 0.69 1.67v0.06c4.15 11.29 0.98 19.7-2.36 29.21z"/>
			</g>
			<path id="&lt;Path&gt;" class="s1" d="m801.13 385.95h16.42v42.03l-12.87 12.9-0.85 0.85-7.5 7.53-2.06 2.06-4.69 4.73-2 2-5.54 5.54 18.31 18.61 8.72 8.85h0.03l8.45 8.58v106.31l-28.07-35.97-0.44-58.99-27.27-26.96v49.63l-28.2-35.88v-87.39c0-0.47 0-0.91 0.1-1.35 0.06-2.6 0.64-5.07 1.55-7.4 3.08-8.07 10.3-14.05 19.09-15.37q1.78-0.31 3.61-0.31h3.85v57.64l5.41-5.34 8.99-8.89 11.41-11.28 1.76-1.76v-30.76z"/>
			<path id="&lt;Path&gt;" class="s1" d="m917.95 410.95v36.99l-0.24 0.24-0.71 0.71h-27.73v-36.15h-28.07v110.94l10.94-13.07h35.2l-74.79 97.19v-223.7h58.54c5.37 0 10.34 1.58 14.53 4.25 1.65 1.12 3.21 2.37 4.56 3.75 2.57 2.57 4.59 5.68 5.91 9.12v1.15l0.17-0.64c1.08 2.87 1.69 6.01 1.69 9.22z"/>
			<path id="&lt;Path&gt;" class="s0" d="m757.5 311.82c-0.86 0-1.73 0.06-2.53 0.12q-5.37 0.43-10.49 2.24l-1.55-1.44h-2.54c-1.21 0-2.24 0.35-2.7 0.52-14.17 3.34-25.7 14.63-28.81 28-0.05 0.34-0.17 0.69-0.23 1.03q-2.52 1.3-4.95 2.6c-3.05 1.61-19.82 10.65-20.85 12.04-1.38 1.9-0.92 13.3-0.81 16.53 0.63 21.71 3.57 44.18 8.24 65.32 10.14 45.85 31.22 87.9 61.86 123.27 0.18 0.58-0.8 0.63-1.26 0.46-1.85-0.86-10.49-8.12-12.56-9.96-57.95-50.18-83.53-132.15-88.25-206.8l0.75-1.79c38.25-27.7 84.1-48.09 129.2-62.03 3.34-1.04 7.78-2.42 12.68-3.92 1.03 1.09 2.19 2.13 3.28 3.05l-6.11 11c-0.98 1.85-2.13 3.35-3.34 4.44-3.91 3.69-9.39 5.7-15.2 7.83-2.6 0.98-5.25 1.9-7.72 3.06l-0.52 0.23c-1.56 0.57-4.21 1.61-5.59 4.2z"/>
			<path id="&lt;Path&gt;" class="s1" d="m1006.52 363.9c-6.34 69.93-38.88 157.02-98.73 198.03-0.81 0.58-3.46 2.94-4.21 2.31 27.31-29.44 47.06-65.32 58.7-103.74 1.15-3.75 2.19-7.55 3.17-11.29v-0.06q0.95-3.46 1.73-6.91c5.7-24.66 7.89-47.87 8.23-73.1 0.06-3.92 2.13-8.41-0.57-12.68-19.3-11.4-39.29-21.54-59.85-30.29q-0.09-0.18-0.17-0.35-0.87-2.07-1.91-4.15v-0.17l-0.69-1.27c-2.93-5.53-10.42-18.66-16.53-20.45-1.04-0.34-2.19-0.46-3.57-0.46-5.88 0-17.28 2.88-20.68 3.98-1.38 0.46-2.53 0.86-3.46 1.32-0.75 0.35-1.44 0.69-2.01 1.15q-0.68 0.52-1.27 1.04c-0.29 0.29-0.58 0.63-0.81 0.92-0.11-0.06-0.28-0.06-0.4-0.11 3.57-5.88 6.39-11.87 7.6-15.96 0.98-3.17 1.5-6.39 1.96-9.5 0.12-0.64 0.18-1.21 0.29-1.79 1.84 0.58 3.46 1.1 4.95 1.56 36.24 11.23 77.02 28.22 109.16 48.32 3.57 2.25 17.11 10.55 19.07 12.91 1.96 2.36 0.4 16.7 0 20.74z"/>
			<path id="&lt;Path&gt;" class="s0" d="m650.92 411.94l10.36 34.19c27.12 82.06 90.56 144.5 167.6 181.04 88.83-40.99 157.55-118.54 177.67-215.66 1.15-1.42 0.93 1.06 0.9 1.75-0.38 7.03-1.66 15.31-2.78 22.33-14.43 90.34-63.87 158.67-140.97 206.01-4.64 2.84-31.85 18.86-34.91 18.66-2.27-0.14-15.28-7.65-18.38-9.36-90.6-49.93-152.96-133.36-159.49-238.96z"/>
		</g>
		<g id="&lt;Group&gt;">
		</g>
		<g id="&lt;Group&gt;">
			<path id="&lt;Compound Path&gt;" class="s0" d="m879.03 736.39c7.16 1.26 6.86 7.34 4.39 12.76-0.65 1.43-2.67 2.75-2.85 3.68-0.23 1.17 1.74 3.2 1.77 5.43 0.06 3.81-4.71 13.53-8.9 13.53h-36.8l5.53-21.95c0.59-0.42 12.55-0.5 14.54-0.47 4.73 0.07 14.21 3.91 14.4-3.67h-17.7c-0.08 0 0.15-1.13-0.32-1.5-2.9-2.28-6.74-4.28-8.07-7.81 10.14 1.26 24.41-1.71 34.01 0zm-27.48 27.02h14.44c0.31 0 3.16-1.93 3.26-2.34l-1.4-2.32h-14.91z"/>
			<path id="&lt;Path&gt;" class="s0" d="m981 686.97c0.12 3.87 0.54 7.85-2.65 10.63h-29.23c-0.63 9.71 18.79 0.94 21.86 5.24 1.12 1.87-0.08 8.13-1.63 9.15l-22.95 1.49-0.46 5.38c0.38 0.52 1.36-1.07 1.58-1.07h26.04l-2.12 9.57h-42.51c3.23-13.5 5.77-27.73 11.16-40.39z"/>
			<path id="&lt;Path&gt;" class="s0" d="m699 745.39c3.07 6.26-2.54 12.17-1.85 18.63 4.37-2.15 9.65-0.07 14.23-1.13 3.56-0.82 2.05-3.49 9.71-4.05 2.82-0.21 7.05-1.08 6.4 2.43-0.8 4.35-4.12 9.07-8.67 9.99-3.34 0.68-29.62 0.68-31.91-0.27-2.88-1.2-3.05-4.76-2.84-7.43 0.27-3.42 3.56-16.07 4.96-19.29 2.21-5.04 5.89-7.62 11.37-8.2 5.13-0.56 22.01-0.7 26.62 0.4 6.98 1.68 5.64 7.21 3.54 12.52l-11.42 0.19-1.97-3.79z"/>
			<path id="&lt;Path&gt;" class="s0" d="m770.78 717.15c3.84-1.1 7.64-24.2 9.54-28.72l14.37-1.03c-2.84 7.87-5.64 30.89-11.13 36.15-5.79 5.54-25.73 2.85-33.85 2.5-5.37-0.23-11.39 3.06-12.04-6.05l8.78-32.68 13.17 0.08-6.38 29.75z"/>
			<path id="&lt;Path&gt;" class="s0" d="m865.34 686.78l-10.61 39.87-12.78 0.52c-0.55-5.64 2.52-10.78 3.51-16.22 0.33-1.81 1.42-2.41-0.85-3.97l-12.76 15.93-2.63-2.11c2.11 8.98-8.74 6.95-14.43 5.37l-4.73-19.19c-1.47-0.17-1.79 2.55-2.14 3.68-0.9 2.92-3.08 14.27-4.64 15.55-1.87 1.53-12.45 1.92-13.32-0.78l9.53-38.6 20.19 0.44 6.87 25.03c0.81-3.02 2.17-5.24 3.9-7.8 2.39-3.53 9.02-13.37 11.47-15.86 0.81-0.82 1.64-1.39 2.7-1.86z"/>
			<path id="&lt;Path&gt;" class="s0" d="m842.4 735.82l-9.3 34.96-11.21 0.45c-0.48-4.94 2.21-9.45 3.08-14.22 0.29-1.58 1.25-2.11-0.75-3.48l-11.19 13.96-2.3-1.85c1.85 7.88-7.66 6.1-12.65 4.72l-4.15-16.83c-1.28-0.15-1.57 2.23-1.88 3.22-0.79 2.56-2.69 12.52-4.07 13.64-1.63 1.34-10.91 1.69-11.67-0.68l8.36-33.85 17.7 0.39 6.02 21.94c0.71-2.64 1.9-4.59 3.42-6.83 2.09-3.1 7.91-11.72 10.05-13.91 0.71-0.72 1.44-1.22 2.37-1.63z"/>
			<path id="&lt;Path&gt;" class="s0" d="m928.05 771.3h-24.23l9.38-5.23c0.47-7.24-3.04-13.88-4.25-20.87-0.82 0-0.17 4.81-0.95 6.51-0.99 2.17-11.22 14.66-13.51 17.3q-0.84 0.99-0.92 2.29h-13.04l24.2-32.18 1.88-0.43 1.87 4.65-0.54-6.58 10.81-0.42z"/>
			<path id="&lt;Path&gt;" class="s0" d="m713.79 686.95c1.3 1.31-2.85 12.92 0.53 12.73 7.61-9.69 16.35-14.9 29.22-12.72 0.55 2.1-0.88 2.05-1.79 2.98-2.89 2.96-15.85 13.28-19.26 14.79-0.96 0.42-2.32 0.27-3.39 0.29l13.79 20.73c-13.26 6.95-17.14-4.72-23.89-13.27l-5.83 14.34-11.75 0.03-0.82-2.94 9.88-35.91z"/>
			<path id="&lt;Path&gt;" class="s0" d="m934.85 687.51l-2.13 10.62h-18.6c-0.17 0-3.1 1.05-2.65 2.12l3.82 0.99-6.09 25.45-13.68 0.13 6.42-26.03c-0.36-4.79-11.52-1.9-14.92-2.66l3.72-10.62z"/>
			<path id="&lt;Path&gt;" class="s0" d="m971.29 736.58l-1.86 9.32h-16.31c-0.15 0-2.72 0.91-2.32 1.85l3.35 0.87-5.34 22.32-11.99 0.11 5.63-22.82c-0.32-4.2-10.11-1.67-13.08-2.33l3.25-9.32z"/>
			<path id="&lt;Path&gt;" class="s0" d="m884.02 686.97l-9.71 40.25-13.68 0.14 10.52-39.72z"/>
			<path id="&lt;Compound Path&gt;" class="s0" d="m744.3 736.36c5.81-0.91 20.81-0.9 26.77-0.24 10.75 1.19 6.65 8.56 4.86 16.04-1.02 4.26-3.4 14.09-6.7 16.59-6.15 4.64-20.54 2.6-28.13 2.19-3.84-0.21-10.17 1.94-11.34-4.76-0.38-2.15 4.59-20.91 5.9-23.55 1.97-3.99 4.28-5.59 8.64-6.27zm0.68 25.85c4.27-0.59 9.56 0.42 13.98 0 2.49 0 5.36-13.6 5.19-16.22-0.53-2.04-17.78-1.99-20.56-0.54l2.85 3.23-2.85 14.46c0.34 0.47 1.13-0.9 1.39-0.93z"/>
		</g>
	</g>
</svg>