<?xml version="1.0" encoding="UTF-8"?>
<svg id="Layer_1" data-name="Layer 1" xmlns="http://www.w3.org/2000/svg" viewBox="0 0 1080 1080">
  <defs>
    <style>
      .cls-1 {
        fill: #d1053a;
      }

      .cls-2 {
        fill: #077ce5;
      }

      .cls-3 {
        fill: #fff;
      }
    </style>
  </defs>
  <g>
    <path class="cls-3" d="M473.69,529.87c5.35,0,9.71-4.36,9.71-9.71s-4.36-9.71-9.71-9.71-9.71,4.36-9.71,9.71,4.36,9.71,9.71,9.71Z"/>
    <path class="cls-3" d="M473.69,569.55c5.35,0,9.71-4.36,9.71-9.71s-4.36-9.71-9.71-9.71-9.71,4.36-9.71,9.71,4.36,9.71,9.71,9.71Z"/>
    <path class="cls-3" d="M503.25,540c0-5.36-4.36-9.71-9.71-9.71s-9.71,4.35-9.71,9.71,4.36,9.71,9.71,9.71,9.71-4.36,9.71-9.71Z"/>
    <path class="cls-3" d="M453.85,549.71c5.36,0,9.71-4.36,9.71-9.71s-4.36-9.71-9.71-9.71-9.71,4.35-9.71,9.71,4.36,9.71,9.71,9.71Z"/>
    <path class="cls-3" d="M307.04,531.9c.35.45.89.7,1.45.7s1.1-.26,1.45-.7l5.68-7.11c.26-.33.41-.74.41-1.16v-11.35c0-1.03-.83-1.86-1.86-1.86h-11.35c-1.03,0-1.86.83-1.86,1.86v11.35c0,.42.14.83.41,1.16l5.68,7.11Z"/>
    <path class="cls-3" d="M302.82,569.58h11.35c1.03,0,1.86-.84,1.86-1.86v-11.35c0-.42-.14-.83-.41-1.16l-5.68-7.11c-.35-.44-.89-.7-1.45-.7s-1.1.26-1.45.7l-5.68,7.11c-.26.33-.41.74-.41,1.16v11.35c0,1.03.83,1.86,1.86,1.86Z"/>
    <path class="cls-3" d="M323.71,547.13c.33.27.74.41,1.16.41h11.35c1.03,0,1.86-.83,1.86-1.86v-11.35c0-1.03-.83-1.86-1.86-1.86h-11.35c-.42,0-.83.15-1.16.41l-7.12,5.68c-.44.35-.7.89-.7,1.45s.26,1.1.7,1.45l7.12,5.67Z"/>
    <path class="cls-3" d="M293.29,532.87c-.33-.26-.74-.41-1.16-.41h-11.35c-1.03,0-1.86.84-1.86,1.86v11.35c0,1.03.83,1.86,1.86,1.86h11.35c.42,0,.83-.14,1.16-.41l7.12-5.68c.44-.35.7-.89.7-1.45s-.26-1.1-.7-1.45l-7.12-5.68Z"/>
  </g>
  <g>
    <polygon class="cls-2" points="385.25 516.71 370.01 496.93 355.41 478 345.02 478 331.57 478 246.71 478 246.71 602 370.71 602 370.71 583.07 351.77 583.07 344.36 583.07 265.64 583.07 265.64 496.93 346.09 496.93 371.16 529.62 385.25 529.62 385.25 516.71"/>
    <polygon class="cls-1" points="397.15 563.29 412.4 583.07 426.99 602 437.38 602 450.83 602 535.69 602 535.69 478 411.69 478 411.69 496.93 430.63 496.93 438.04 496.93 516.76 496.93 516.76 583.07 436.31 583.07 411.24 550.38 397.15 550.38 397.15 563.29"/>
  </g>
  <g>
    <path class="cls-3" d="M576.92,533.15v-8.28h14.3v11.76l-9.41,9.41h-30.68v-58.68l10.16-9.37h29.93v25.69h-14.3v-12.75h-11.48v42.21h11.48Z"/>
    <path class="cls-3" d="M637.15,546.05h-40.24v-68.05h14.26v55.15h11.67v-55.15h14.31v68.05Z"/>
    <path class="cls-3" d="M680.92,546.05h-37.41v-21.18h14.26v8.28h8.84v-10.82l-22.63-17.08v-27.25h36.52v20.23h-12.94v-7.25h-9.32v8.89l22.68,17.04v29.13Z"/>
    <path class="cls-3" d="M727.6,490.94h-12.85v55.11h-14.35v-55.11h-13.32v-12.94h40.52v12.94Z"/>
    <path class="cls-3" d="M733.39,478h41.08v68.05h-41.08v-68.05ZM747.7,533.15h12.52v-42.21h-12.52v42.21Z"/>
    <path class="cls-3" d="M816.03,478h16.47v68.05h-13.18v-42.36l-10.59,42.36h-4.24l-10.59-42.36v42.36h-13.18v-68.05h16.47l9.41,33.88,9.41-33.88Z"/>
  </g>
  <g>
    <path class="cls-3" d="M567.62,593.58v-5.3h9.15v7.53l-6.02,6.02h-19.63v-37.53l6.5-5.99h19.15v16.44h-9.15v-8.16h-7.35v27h7.35Z"/>
    <path class="cls-3" d="M580.41,558.3h26.28v43.52h-26.28v-43.52ZM589.57,593.58h8.01v-27h-8.01v27Z"/>
    <path class="cls-3" d="M628.58,583.29v-24.99h8.61v43.52h-9.03l-8.91-24.98v24.98h-8.55v-43.52h9.03l8.85,24.99Z"/>
    <path class="cls-3" d="M667.38,566.58h-8.22v35.25h-9.18v-35.25h-8.52v-8.28h25.91v8.28Z"/>
    <path class="cls-3" d="M688.03,601.83l-5.42-15.74h-2.41v15.74h-9.12v-37.38l6.63-6.14h18.63v27.66h-4.94l5.78,15.86h-9.15ZM687.21,577.93v-11.35h-7.01v11.35h7.01Z"/>
    <path class="cls-3" d="M700.55,558.3h26.28v43.52h-26.28v-43.52ZM709.7,593.58h8.01v-27h-8.01v27Z"/>
    <path class="cls-3" d="M730.83,601.83v-43.52h9.12v35.28h12.76v8.24h-21.88Z"/>
    <path class="cls-3" d="M756.63,601.83v-43.52h9.12v35.28h12.76v8.24h-21.89Z"/>
    <path class="cls-3" d="M782.42,558.3h21.13v8.28h-12.1v8.4h11.5v8.13h-11.38v10.48h12.28v8.24h-21.43v-43.52Z"/>
    <path class="cls-3" d="M824.14,601.83l-5.42-15.74h-2.41v15.74h-9.12v-37.38l6.62-6.14h18.63v27.66h-4.94l5.78,15.86h-9.15ZM823.33,577.93v-11.35h-7.01v11.35h7.01Z"/>
  </g>
</svg>